<svg xmlns="http://www.w3.org/2000/svg" width="140" height="140" viewBox="0 0 140 140">
  <g id="Group_4521" data-name="Group 4521" transform="translate(-98 -1549)">
    <circle id="Ellipse_60" data-name="Ellipse 60" cx="70" cy="70" r="70" transform="translate(98 1549)" fill="#5ecc4b"/>
    <g id="Group_4350" data-name="Group 4350" transform="translate(-271.804 493.509)">
      <path id="Path_1779" data-name="Path 1779" d="M457.47,1121.657v5.75h5.917v-5.75Zm4.5,4.334h-3.083v-2.917h3.083Z" fill="#fff"/>
      <path id="Path_1780" data-name="Path 1780" d="M457.47,1130.324v5.75h5.917v-5.75Zm4.5,4.333h-3.083v-2.916h3.083Z" fill="#fff"/>
      <path id="Path_1781" data-name="Path 1781" d="M457.6,1139.116v5.5h5.667v-5.5Zm4.5,4.333h-3.333v-3.167H462.1Z" fill="#fff"/>
      <path id="Path_1782" data-name="Path 1782" d="M457.6,1147.782v5.5h5.667v-5.5Zm4.5,4.334h-3.333v-3.167H462.1Z" fill="#fff"/>
      <path id="Path_1783" data-name="Path 1783" d="M448.229,1105.016h-5.2v-5.2H436.5v5.2h-5.2v6.533h5.2v5.2h6.533v-5.2h5.2Zm-1.333,5.2h-5.2v5.2h-3.867v-5.2h-5.2v-3.867h5.2v-5.2H441.7v5.2h5.2Z" fill="#fff"/>
      <path id="Path_1784" data-name="Path 1784" d="M411.8,1157.741H467.72v-40.417H454.554v-23.833H424.97v23.833H411.8Zm27.25-1.417h-6.167v-20.25h6.167Zm7.583,0H440.47v-20.25h6.167Zm7.917-37.583H466.3v37.583h-11.75Zm-28.167-23.834h26.75v61.417h-5.083v-21.667H431.47v21.667h-5.083Zm-13.167,23.834h11.75v37.583H413.22Z" fill="#fff"/>
      <path id="Path_1785" data-name="Path 1785" d="M416.262,1121.782v5.5h5.667v-5.5Zm4.5,4.334h-3.333v-3.167h3.333Z" fill="#fff"/>
      <path id="Path_1786" data-name="Path 1786" d="M416.262,1130.449v5.5h5.667v-5.5Zm4.5,4.333h-3.333v-3.166h3.333Z" fill="#fff"/>
      <path id="Path_1787" data-name="Path 1787" d="M416.262,1139.116v5.5h5.667v-5.5Zm4.5,4.333h-3.333v-3.167h3.333Z" fill="#fff"/>
      <path id="Path_1788" data-name="Path 1788" d="M416.262,1147.782v5.5h5.667v-5.5Zm4.5,4.334h-3.333v-3.167h3.333Z" fill="#fff"/>
    </g>
  </g>
</svg>
