<svg xmlns="http://www.w3.org/2000/svg" width="140" height="140" viewBox="0 0 140 140">
  <g id="Group_4521" data-name="Group 4521" transform="translate(-98 -1549)">
    <circle id="Ellipse_60" data-name="Ellipse 60" cx="70" cy="70" r="70" transform="translate(98 1549)" fill="#3bc9d6"/>
    <g id="Group_4348" data-name="Group 4348" transform="translate(-115.073 489.773)">
      <path id="Path_1771" data-name="Path 1771" d="M296.375,1144.021H269.154a.7.7,0,0,0,0,1.405h27.221a.7.7,0,1,0,0-1.405Z" fill="#fff"/>
      <path id="Path_1772" data-name="Path 1772" d="M296.375,1148.146H269.154a.7.7,0,0,0,0,1.4h27.221a.7.7,0,1,0,0-1.4Z" fill="#fff"/>
      <path id="Path_1773" data-name="Path 1773" d="M292.394,1152.271H273.136a.7.7,0,0,0,0,1.4h19.258a.7.7,0,0,0,0-1.4Z" fill="#fff"/>
      <path id="Path_1774" data-name="Path 1774" d="M262.492,1117.438l5.884,2.147v11.429a2.429,2.429,0,0,0,.751,1.738,13.639,13.639,0,0,0,1.615,1.3l.249.173-.216.212a3.121,3.121,0,0,0-.934,2.213v.641a1.114,1.114,0,0,0,.2.633l.079.114-.98,2.26a.7.7,0,1,0,1.288.558l.961-2.215.215.067c.117.037.237.07.356.1l.2.044v2.343a.7.7,0,1,0,1.4,0v-2.343l.2-.044c.12-.027.239-.06.356-.1l.215-.067.963,2.215a.7.7,0,0,0,.922.366.7.7,0,0,0,.365-.924l-.98-2.261.079-.114a1.106,1.106,0,0,0,.2-.632v-.822l.318.091a24.1,24.1,0,0,0,6.573.893c5.419,0,10.517-1.757,13.638-4.7a2.431,2.431,0,0,0,.75-1.738v-11.429l5.885-2.147a1.048,1.048,0,0,0,0-1.969l-18.867-6.886a4.129,4.129,0,0,0-2.814,0l-18.866,6.886a1.048,1.048,0,0,0,0,1.969Zm7.749,14.429.168-.184h0l-.2.153a1.044,1.044,0,0,1-.425-.822v-2.2l.4.3a15.824,15.824,0,0,0,1.845,1.2l.128.072v2.913l-.388-.258A12.63,12.63,0,0,1,270.241,1131.867Zm-.46-5.377V1120.1l2.379.868,0,.178c0,.053,0,.346,0,3.3v4.343l-.388-.258a12.383,12.383,0,0,1-1.676-1.319A.987.987,0,0,1,269.781,1126.49Zm4.688,10.595-.164.06a4.17,4.17,0,0,1-1.42.36,4.394,4.394,0,0,1-1.475-.36l-.164-.06v-.24a1.774,1.774,0,0,1,.513-1.407,1.538,1.538,0,0,1,1.13-.461c.591.011,1.581.277,1.581,1.933Zm21.281-10.595a.987.987,0,0,1-.311.717,17.871,17.871,0,0,1-10.516,4.22.7.7,0,0,0-.635.763.693.693,0,0,0,.249.476.7.7,0,0,0,.513.159,20.155,20.155,0,0,0,10.3-3.7l.4-.306v2.2a.989.989,0,0,1-.31.716c-2.867,2.705-7.605,4.319-12.675,4.319a22.317,22.317,0,0,1-7.418-1.233l-.069-.024-.044-.058a2.992,2.992,0,0,0-1.5-1.031l-.177-.054v-2.561l.346.144a22.65,22.65,0,0,0,6.573,1.593.7.7,0,0,0,.763-.636.7.7,0,0,0-.636-.762,20.738,20.738,0,0,1-6.9-1.815l-.143-.067v-8.068l7.8,2.846a4.2,4.2,0,0,0,2.814,0l11.578-4.224ZM281.839,1109.9a2.714,2.714,0,0,1,1.851,0l17.95,6.551-.645.235-17.3,6.315h0a2.728,2.728,0,0,1-1.852,0l-7.2-2.629,6.122-3.023.6.218a4.137,4.137,0,0,0,2.815,0l.877-.32a1.115,1.115,0,0,0,.731-1.044v-.7a3.031,3.031,0,0,0-2.959-3.016,2.959,2.959,0,0,0-2.14.864,3.12,3.12,0,0,0-.933,2.213v.722l-3.733,1.843c-2.779,1.371-2.946,1.453-3.022,1.507l-.107.076-.147-.029-8.848-3.23Zm-.686,6.1v-.437a1.7,1.7,0,0,1,.513-1.21,1.463,1.463,0,0,1,1.128-.461,1.62,1.62,0,0,1,1.583,1.611v.5l-.687.25a2.691,2.691,0,0,1-.925.163,2.727,2.727,0,0,1-.926-.162Z" fill="#fff"/>
      <path id="Path_1775" data-name="Path 1775" d="M303.908,1097.227H261.623a3.553,3.553,0,0,0-3.55,3.548v57.4a3.554,3.554,0,0,0,3.55,3.549h42.285a3.553,3.553,0,0,0,3.549-3.549v-57.4A3.552,3.552,0,0,0,303.908,1097.227Zm-44.43,3.548a2.149,2.149,0,0,1,2.145-2.144h4.057v4.475h-6.2Zm46.574,57.4a2.147,2.147,0,0,1-2.144,2.144H261.623a2.147,2.147,0,0,1-2.145-2.144v-53.667h46.574Zm0-55.072H267.084v-4.475h36.824a2.147,2.147,0,0,1,2.144,2.144Z" fill="#fff"/>
    </g>
  </g>
</svg>
