<svg xmlns="http://www.w3.org/2000/svg" width="140" height="140" viewBox="0 0 140 140">
  <g id="Group_4521" data-name="Group 4521" transform="translate(-98 -1549)">
    <circle id="Ellipse_60" data-name="Ellipse 60" cx="70" cy="70" r="70" transform="translate(98 1549)" fill="#e6be32"/>
    <g id="Group_4523" data-name="Group 4523" transform="translate(-184.03 489.303)">
      <path id="Path_1776" data-name="Path 1776" d="M323.583,1119.2a26.5,26.5,0,0,1,14.48-18.744,26.132,26.132,0,0,1,23.354-.005c9.756,4.867,14.831,12.976,15.083,24.1a20.318,20.318,0,0,0,1.554,7.683c.851,1.983,1.77,4.161,2.81,6.657a2.6,2.6,0,0,1-1.817,3.781c-.932.263-1.882.517-2.8.763l-.233.062a1.519,1.519,0,0,0-1.207,1.306c-.166,1.063-.346,2.144-.521,3.188l-.025.149,0,.02c-.333,1.991-.678,4.051-.939,6.093a4.765,4.765,0,0,1-4.92,4.541c-2.983.019-6.016.007-8.625-.006a8.345,8.345,0,0,1-8.366-8.249.637.637,0,0,1,.629-.743.2.2,0,0,1,.034,0,.7.7,0,0,1,.689.722c.007.06.008.122.009.181l.008.244a6.872,6.872,0,0,0,6.514,6.424c2.909.071,5.862.047,8.717.028l.711-.007a3.238,3.238,0,0,0,3.2-2.9c.3-1.94.606-3.911.9-5.817l.647-4.147a2.6,2.6,0,0,1,2.076-2.31c.949-.259,1.921-.53,2.977-.831a1.319,1.319,0,0,0,1.014-2.113l-.71-1.7c-.6-1.449-1.226-2.948-1.871-4.407a20.311,20.311,0,0,1-1.816-8.813,22.253,22.253,0,0,0-.663-5.759,25.283,25.283,0,0,0-40.456-13.889c-7.336,5.853-10.477,13.668-9.335,23.23a23.731,23.731,0,0,0,4.014,10.591,14.081,14.081,0,0,1,2.521,8.427c-.025,1.372-.019,2.768-.012,4.118l0,1.445v.387l0,2.141v.171c0,1.742,0,3.543-.009,5.314a.658.658,0,0,1-.666.731.693.693,0,0,1-.68-.745c0-.091,0-.185,0-.275v-.145c0-1.271-.005-2.562-.009-3.81-.011-2.933-.022-5.965.021-8.975a14.23,14.23,0,0,0-2.435-8.239A25.917,25.917,0,0,1,323.583,1119.2Z" fill="#fff"/>
      <path id="Path_1777" data-name="Path 1777" d="M333.529,1120.632a1.81,1.81,0,0,0,.7-1.639,7.9,7.9,0,0,1,7.555-8.353,1.824,1.824,0,0,0,1.57-.847,8.626,8.626,0,0,1,7.369-4.136,10.632,10.632,0,0,1,1.338.088,8.683,8.683,0,0,1,7.341,5.907,1.428,1.428,0,0,0,1.4,1.006,7.92,7.92,0,0,1,.276,15.777,1.554,1.554,0,0,0-1.446,1.132,5.158,5.158,0,0,1-4.405,3.582,13.378,13.378,0,0,1-2.262.078h-.054c-.4-.01-.809-.019-1.209-.012a4.131,4.131,0,0,0-4.337,4.342c0,.505,0,1.018,0,1.514v.061c0,.693,0,1.41-.009,2.116-.011.532-.239.806-.677.814h-.033a.608.608,0,0,1-.443-.15.847.847,0,0,1-.205-.615l0-.317c-.023-1.322-.046-2.69.032-4.02a5.423,5.423,0,0,1,4.967-5.069c.727-.058,1.456-.059,2.228-.06.417,0,.849,0,1.277-.012a3.954,3.954,0,0,0,4.056-3.817,3.994,3.994,0,0,0-3.813-4.142c-.87-.085-.838-.557-.826-.736.037-.526.519-.6.88-.616a5.347,5.347,0,0,1,4.828,3.556,1.285,1.285,0,0,0,1.223,1.036,1.883,1.883,0,0,0,.278-.023,6.571,6.571,0,0,0,.8-12.85l-.009,0c-.653-.176-1.083-.291-1.5-.005s-.464.738-.533,1.419c-.04.4-.262.785-.669.785l-.057,0c-.578-.039-.627-.616-.621-.863l.009-.318a8.251,8.251,0,0,0-.069-1.749,7.642,7.642,0,0,0-14.4-2.23c-.421.8-.435.806-1.363.732q-.275-.022-.546-.022a6.568,6.568,0,0,0-6.542,6.01,6.959,6.959,0,0,0,.932,4.027.64.64,0,0,1-.2.931.664.664,0,0,1-.941-.217c-.069-.092-.134-.188-.2-.281l-.618-.9-.615.6a5.211,5.211,0,0,0-1,5.97,5.34,5.34,0,0,0,4.736,2.995,4.894,4.894,0,0,0,.714-.051,5.36,5.36,0,0,0,4.546-4.2,1.465,1.465,0,0,0-.626-1.523,4.642,4.642,0,0,1-1.881-4.425.9.9,0,0,1,.532-.8l.017,0a.522.522,0,0,1,.164-.046h.029c.54.038.632.525.615.929a4.06,4.06,0,0,0,.225,1.825,3.315,3.315,0,0,0,2.471,2.042,3.813,3.813,0,0,0,3.411-1.209c.277-.292.692-.565,1.087-.2s.186.783-.051,1.08a4.572,4.572,0,0,1-3.265,1.743,1.511,1.511,0,0,0-1.5,1.233,6.621,6.621,0,0,1-6.008,4.965c-.117.006-.234.008-.35.008a6.737,6.737,0,0,1-6.3-4.226A6.649,6.649,0,0,1,333.529,1120.632Z" fill="#fff"/>
      <path id="Path_1778" data-name="Path 1778" d="M346.936,1119.6a.651.651,0,0,1-.471.271h-.006l-.087,0c-.265,0-.627-.084-.7-1.027a4.813,4.813,0,0,1,8.571-3.264c.39.5.413.9.066,1.181s-.719.17-1.136-.307a3.577,3.577,0,0,0-2.7-1.315,3.442,3.442,0,0,0-1.211.224,3.407,3.407,0,0,0-2.217,3.4l.019.151A.809.809,0,0,1,346.936,1119.6Z" fill="#fff"/>
    </g>
  </g>
</svg>
