<svg id="Group_359" data-name="Group 359" xmlns="http://www.w3.org/2000/svg" width="40" height="40" viewBox="0 0 40 40">
  <path id="Path_1512" data-name="Path 1512" d="M20,0A20,20,0,1,1,0,20,20,20,0,0,1,20,0Z" transform="translate(0)" fill="#0078ba"/>
  <path id="Path_1521" data-name="Path 1521" d="M6.538,4.8A1.8,1.8,0,1,1,4.74,3,1.8,1.8,0,0,1,6.538,4.8Zm.054,3.13h-3.6V19.189h3.6Zm5.684,0H8.7V19.189H12.24V13.28c0-3.292,4.29-3.6,4.29,0v5.909h3.553V12.057c0-5.549-6.35-5.343-7.843-2.617Z" transform="translate(8.489 8.43)" fill="#fff"/>
</svg>
