<svg xmlns="http://www.w3.org/2000/svg" width="40" height="40" viewBox="0 0 40 40">
  <g id="Group_4660" data-name="Group 4660" transform="translate(-1179 -3182)">
    <path id="Path_1512" data-name="Path 1512" d="M20,0A20,20,0,1,1,0,20,20,20,0,0,1,20,0Z" transform="translate(1179 3182)" fill="#59b9eb"/>
    <path id="Path_152" data-name="Path 152" d="M19,4H5A3,3,0,0,0,2,7V17a3,3,0,0,0,3,3H19a3,3,0,0,0,3-3V7a3,3,0,0,0-3-3Zm-.67,2L12,10.75,5.67,6ZM19,18H5a1,1,0,0,1-1-1V7.25l7.4,5.55a1,1,0,0,0,1.2,0L20,7.25V17A1,1,0,0,1,19,18Z" transform="translate(1187 3190)" fill="#fff"/>
  </g>
</svg>
