<svg id="Group_362" data-name="Group 362" xmlns="http://www.w3.org/2000/svg" width="40" height="40" viewBox="0 0 40 40">
  <path id="Path_1512" data-name="Path 1512" d="M20,0A20,20,0,1,1,0,20,20,20,0,0,1,20,0Z" transform="translate(0)" fill="#03a9f4"/>
  <path id="Path_1514" data-name="Path 1514" d="M13.6,5.3a2.545,2.545,0,0,0-2.545,2.5l-.025,1.381a.526.526,0,0,1-.6.512L9.06,9.51A10.272,10.272,0,0,1,3.875,7.054c-.525,2.9.5,4.916,2.968,6.468l1.533.963a.526.526,0,0,1,.03.871l-1.4,1.02a9.091,9.091,0,0,0,2.274-.115c4.14-.827,6.892-3.941,6.892-9.079A2.65,2.65,0,0,0,13.6,5.3ZM9.3,7.77a4.3,4.3,0,0,1,7.357-2.944,3.384,3.384,0,0,0,2.342-.566A6.341,6.341,0,0,1,17.93,7.183c0,6.705-4.121,9.966-8.3,10.8-2.867.572-7.037-.368-8.232-1.615a10.13,10.13,0,0,0,4.513-1.36C4.7,14.21-.118,11.376,3.047,3.757A12.324,12.324,0,0,0,7.566,7.3,5.157,5.157,0,0,0,9.3,7.771Z" transform="translate(9.805 9.251)" fill="#fff"/>
</svg>
