<svg id="Group_363" data-name="Group 363" xmlns="http://www.w3.org/2000/svg" width="40" height="40" viewBox="0 0 40 40">
  <path id="Path_1516" data-name="Path 1516" d="M20,0A20,20,0,1,1,0,20,20,20,0,0,1,20,0Z" fill="#00d95f"/>
  <g id="Group_328" data-name="Group 328" transform="translate(11.2 11.2)">
    <path id="Path_1503" data-name="Path 1503" d="M369.177,395.631l1.265-4.719a8.736,8.736,0,1,1,3.479,3.448Zm4.98-3.039.3.178a7.088,7.088,0,1,0-2.426-2.4l.183.3-.706,2.635Z" transform="translate(-369.177 -377.988)" fill="#fff"/>
    <path id="Path_1504" data-name="Path 1504" d="M382.119,388.738a1.466,1.466,0,0,0-1.249-.281c-.324.133-.531.64-.741.9a.311.311,0,0,1-.4.087,5.65,5.65,0,0,1-2.821-2.416.347.347,0,0,1,.043-.473,1.9,1.9,0,0,0,.513-.831,1.82,1.82,0,0,0-.229-.985,2.334,2.334,0,0,0-.727-1.1.994.994,0,0,0-1.082.161,2.2,2.2,0,0,0-.761,1.74,2.5,2.5,0,0,0,.069.552,4.554,4.554,0,0,0,.53,1.22,9.457,9.457,0,0,0,.553.841,8.545,8.545,0,0,0,2.4,2.227,7.262,7.262,0,0,0,1.5.711,3.326,3.326,0,0,0,1.741.275,2.105,2.105,0,0,0,1.578-1.174,1.018,1.018,0,0,0,.073-.6C383.011,389.183,382.453,388.938,382.119,388.738Z" transform="translate(-369.991 -378.812)" fill="#fff" fill-rule="evenodd"/>
  </g>
</svg>
