<svg xmlns="http://www.w3.org/2000/svg" width="18" height="16.9" viewBox="0 0 18 16.9">
  <g id="download" transform="translate(0 -6.099)">
    <path id="Path_1" data-name="Path 1" d="M.563,9.9c.311,0,.563.4.563.885v4.424c0,.977.5,1.77,1.125,1.77h13.5c.621,0,1.125-.792,1.125-1.77V10.785c0-.489.252-.885.563-.885s.562.4.562.885v4.424c0,1.955-1.007,3.54-2.25,3.54H2.25c-1.243,0-2.25-1.585-2.25-3.54V10.785C0,10.3.252,9.9.563,9.9Z" transform="translate(0 4.25)" fill="#999"/>
    <path id="Path_2" data-name="Path 2" d="M8.544,12.84a.726.726,0,0,0,.91,0l3.856-3.272a.49.49,0,0,0,0-.772.727.727,0,0,0-.91,0L9.642,11.137V1.545a.651.651,0,0,0-1.285,0v9.592L5.6,8.8a.727.727,0,0,0-.91,0,.49.49,0,0,0,0,.772Z" transform="translate(-0.195 5.099)" fill="#999"/>
  </g>
</svg>
