<svg xmlns="http://www.w3.org/2000/svg" width="55" height="54.881" viewBox="0 0 55 54.881"><g transform="translate(-407.661 -658.733)"><path d="M461.893,706.31h-.96v-2.682a2.247,2.247,0,0,0-1.751-2.21l-.245-.058V683.551l.245-.058a2.249,2.249,0,0,0,1.751-2.21V678.6h.938a.771.771,0,0,0,.768-.769v-5.766a.778.778,0,0,0-.445-.7l-26.7-12.564a.782.782,0,0,0-.662,0l-26.707,12.566a.779.779,0,0,0-.444.7v5.766a.772.772,0,0,0,.769.769h.941v2.683a2.247,2.247,0,0,0,1.747,2.21l.246.058v17.808l-.245.057a2.248,2.248,0,0,0-1.748,2.211v2.682h-.957a.771.771,0,0,0-.769.767v5.765a.772.772,0,0,0,.769.769h53.463a.771.771,0,0,0,.768-.769v-5.766A.77.77,0,0,0,461.893,706.31Zm-2.5-2.684v2.684h-12.34v-2.682a.736.736,0,0,1,.733-.731h10.873A.735.735,0,0,1,459.395,703.626Zm-18.768-11.939-10.934,0a1.633,1.633,0,0,0-1.628,1.63v13h-3.258v-2.682a2.247,2.247,0,0,0-1.751-2.21l-.246-.058V683.551l.245-.058a2.25,2.25,0,0,0,1.752-2.21V678.6h20.709v2.683a2.25,2.25,0,0,0,1.748,2.21l.245.058v17.813l-.245.057a2.25,2.25,0,0,0-1.748,2.211v2.682h-3.258v-13A1.633,1.633,0,0,0,440.627,691.687Zm.093,1.535V706.31h-4.791V693.226Zm-6.329,0V706.31H429.6V693.226Zm14.653,8.129v-17.8h3.413V701.36h-.1Zm4.947,0v-17.8h3.4V701.36h-.1Zm5.4-20.071a.734.734,0,0,1-.733.728H447.786a.733.733,0,0,1-.732-.73V678.6H459.4Zm-50.182-4.218v-4.228h21.071a.77.77,0,0,0,0-1.539H412.338l-.042-.191,22.865-10.752.135.063,22.728,10.692-.042.191H440.039a.77.77,0,0,0,0,1.539H461.1v4.226Zm1.719,4.278h0l-.011-.061V678.6h12.345v2.683a.737.737,0,0,1-.734.73H411.658A.733.733,0,0,1,410.929,681.34Zm10.333,2.207v17.812h-3.4v-17.8Zm-4.944,0v17.812h-3.4v-17.8Zm-4.673,19.344h10.889a.735.735,0,0,1,.735.728V706.3H410.927l-.011-2.682A.735.735,0,0,1,411.645,702.891Zm49.479,9.184H409.2v-4.227h51.925Z" fill="#fff"/><path d="M435.162,681.017h0a4.13,4.13,0,0,0,.01,8.261h.008a4.131,4.131,0,0,0-.016-8.261Zm.1,6.72v0l-.1,0a2.592,2.592,0,0,1,.009-5.183h.01a2.59,2.59,0,0,1,.082,5.178Z" fill="#fff"/><path d="M435.16,671.3a.77.77,0,1,0,.769.769A.769.769,0,0,0,435.16,671.3Z" fill="#fff"/></g></svg>