<svg xmlns="http://www.w3.org/2000/svg" width="55" height="54.54" viewBox="0 0 55 54.54"><g transform="translate(-566.099 -658.904)"><path d="M601.212,704.954v-.006a.384.384,0,0,0-.431-.288c-.246.01-.491.007-.73,0-.266,0-.541-.006-.81.008a.507.507,0,0,1-.408-.1.53.53,0,0,1-.117-.407c.014-2.8.014-5.646,0-8.45a.517.517,0,0,1,.115-.394.535.535,0,0,1,.415-.1c.443.012.9.012,1.33.009.337,0,.686,0,1.029,0h.033a.356.356,0,0,0,.259-.068.386.386,0,0,0,.074-.282q-.006-2.415,0-4.831c0-2.841.005-5.779-.02-8.669a3.038,3.038,0,0,0-2.988-3.077c-.056,0-.111,0-.167,0-3.479-.014-7.006-.014-10.483,0l-.123,0a3.021,3.021,0,0,0-3.019,2.9c0,.06,0,.118,0,.178-.016,2.624-.016,5.291-.017,7.87,0,1.828,0,3.717-.006,5.575a.439.439,0,0,0,.085.322.4.4,0,0,0,.288.075h.052c.338-.012.682-.007,1.014-.005.4,0,.824.007,1.235-.013a.55.55,0,0,1,.445.1.6.6,0,0,1,.123.462c-.018,2.767-.018,5.573,0,8.34a.6.6,0,0,1-.124.458.533.533,0,0,1-.406.093,7.041,7.041,0,0,0-.712-.009,7.1,7.1,0,0,1-.714-.008c-.343-.027-.469.124-.582.408-.605,1.527-1.233,3.072-1.84,4.568l-.6,1.478q-.4.986-.8,1.973a1.065,1.065,0,0,0,.554.055c3.231,0,6.5,0,9.721,0h11.2c.04,0,.083,0,.127.006.1.008.219.017.253-.033.023-.03.032-.1-.043-.292C603.318,710.167,602.241,707.522,601.212,704.954ZM592.239,679.6c.01-.2.134-.229.255-.233a6.042,6.042,0,0,1,.66,0,1.166,1.166,0,0,0,.206-.012c.178-.023.4-.047.474.164a.972.972,0,0,1-.159.727c-.023.044-.045.088-.065.131a.244.244,0,0,1-.248.145c-.035,0-.069,0-.1-.007a.381.381,0,0,0-.132,0l-.016,0h0a.873.873,0,0,1-.872-.868C592.238,679.639,592.238,679.622,592.239,679.6Zm-.164,6.029.009-.059a32.72,32.72,0,0,0,.472-3.569c.026-.229.1-.451.456-.415.039,0,.083,0,.126,0,.165-.007.362-.007.4.315.126,1.066.263,2.124.407,3.244.054.417.108.839.164,1.272v.013a1.9,1.9,0,0,1-.572.912,4.712,4.712,0,0,0-.36.426.148.148,0,0,1-.114.071h-.005c-.076,0-.137-.072-.186-.131l-.025-.03a2.216,2.216,0,0,1-.77-2.052Zm-3.693,8v.09l-.008-.005a.528.528,0,0,1-.133.4.552.552,0,0,1-.435.091,9.158,9.158,0,0,0-1.194-.007.424.424,0,0,1-.322-.083.457.457,0,0,1-.1-.352q0-2.453,0-4.9c0-2.459,0-5,.008-7.5a1.966,1.966,0,0,1,1.915-1.976c.611-.029,1.235-.023,1.839-.018.247,0,.494.005.74.005.168,0,.359,0,.438.243a4.841,4.841,0,0,1,.41,2.3c-.169,1.048-.3,2.115-.431,3.147-.061.492-.122.985-.187,1.477a.678.678,0,0,0,.129.573c.583.718,1.206,1.492,1.8,2.284.086.114.154.169.208.169h0c.062,0,.132-.073.222-.194.55-.724,1.121-1.45,1.7-2.156a.849.849,0,0,0,.2-.712c-.07-.529-.136-1.067-.2-1.585-.124-1.016-.253-2.065-.421-3.091a5.051,5.051,0,0,1,.43-2.255c.06-.215.259-.21.407-.208h.054l3.459.013h.016a1.968,1.968,0,0,1,1.965,1.95c0,.025,0,.05,0,.075q.008,2.906.006,5.814c0,2.123,0,4.319.007,6.478a.538.538,0,0,1-.126.421c-.084.076-.206.081-.4.083-.247,0-.374.016-.568.025-.509.024-.9.04-1-.08-.1-.06-.046-.5-.067-.96-.008-.162-.022-.489-.022-.638l0-.45c-.01-1.49-.02-3.031.011-4.545.009-.445-.161-.45-.534-.461-.231,0-.351.019-.422.09a.541.541,0,0,0-.1.391c.018,2.065.016,4.164.014,6.194q0,1.047,0,2.093v1.954c0,2.057,0,4.185.009,6.278a.633.633,0,0,1-.126.476.577.577,0,0,1-.433.107c-.8-.032-1.623-.032-2.52,0h-.053a.5.5,0,0,1-.373-.108.562.562,0,0,1-.117-.431c.012-1.746.011-3.52.009-5.236q0-.922,0-1.844a.61.61,0,0,0-.149-.445.6.6,0,0,0-.416-.206.6.6,0,0,0-.368.092c-.17.079-.156.21-.141.362a.954.954,0,0,1,.009.128l0,1.139c-.006,1.929-.011,3.924.015,5.886a.716.716,0,0,1-.146.546.6.6,0,0,1-.442.126l-.107,0c-.742-.037-1.516-.037-2.3,0a.635.635,0,0,1-.5-.115.654.654,0,0,1-.139-.505l.022-16.356a.44.44,0,0,0-.079-.326.431.431,0,0,0-.325-.064,1.551,1.551,0,0,1-.192,0,.487.487,0,0,0-.374.057.454.454,0,0,0-.09.341Zm-2.355,13.8c.215-.527.4-.993.589-1.456l.011-.041a.348.348,0,0,1,.406-.205h12.951c.05,0,.1-.006.159-.006a.3.3,0,0,1,.312.193c.128.316.257.631.393.966s.282.693.441,1.086l.058.143-.131-.082c-.17-.106-.327-.2-.476-.292-.338-.205-.629-.382-.907-.578a.5.5,0,0,0-.664-.008c-.329.22-.665.43-.989.631-.393.244-.8.5-1.183.763a.733.733,0,0,1-.977-.017c-.412-.286-.85-.558-1.274-.821-.308-.191-.627-.389-.935-.592a.413.413,0,0,0-.525,0c-.371.244-.748.48-1.112.709-.4.25-.806.507-1.2.769a.6.6,0,0,1-.393.147.605.605,0,0,1-.391-.143c-.323-.216-.663-.428-.993-.633-.389-.24-.79-.49-1.172-.755a.621.621,0,0,0-.851.014,9.274,9.274,0,0,1-.82.534c-.148.089-.3.184-.475.29l-.131.084Zm16.792,4.6c-.059.081-.19.082-.479.085l-8.826,0-4.114,0c-1.548,0-3.115,0-4.664.012-.226,0-.369-.017-.436-.108s-.043-.235.027-.465a4.575,4.575,0,0,1,2.256-2.76c.762-.436,1.309-.563,2.012.015a7.529,7.529,0,0,0,.974.648c.226.134.458.273.676.424a.511.511,0,0,0,.667-.009c.348-.231.7-.452,1.043-.665.39-.244.793-.5,1.18-.757a.646.646,0,0,1,.838.011c.395.266.813.527,1.217.779.343.213.7.435,1.041.661a.453.453,0,0,0,.578,0c.362-.237.729-.469,1.085-.694.4-.255.82-.519,1.223-.786a.557.557,0,0,1,.748.005,3.029,3.029,0,0,0,.633.406,3.857,3.857,0,0,1,2.231,2.639l.041.137C602.841,711.841,602.876,711.958,602.819,712.035Z" fill="#fff"/><path d="M621.087,697.22l0-1.433q0-1.1,0-2.2c0-1.439.005-2.927,0-4.39a3.063,3.063,0,0,0-2.948-3.175c-.04,0-.078,0-.117,0-3.567-.034-7.185-.034-10.754,0h0a2.989,2.989,0,0,0-2.972,2.9c-.018,2.789-.018,5.625-.018,8.368q0,2.648-.005,5.3a.372.372,0,0,0,.072.27c.051.05.14.069.3.066.3-.008.6,0,.9,0,.425,0,.865.009,1.295-.014l.11,0a.564.564,0,0,1,.411.117.7.7,0,0,1,.143.537c-.012,1.581-.012,3.186-.012,4.74,0,1.522,0,3.1-.012,4.644a.556.556,0,0,0,.1.4.544.544,0,0,0,.395.1h.012c2.148-.013,4.331-.012,6.447-.011h2.388c1.031,0,1.031,0,1.032-1.052q0-1.1,0-2.208c0-2.172,0-4.417-.012-6.626a.665.665,0,0,1,.144-.512.637.637,0,0,1,.493-.112c.346.018.7.013,1.044.008.358,0,.73-.01,1.1.011a.527.527,0,0,0,.383-.081c.074-.069.1-.194.1-.428C621.083,700.691,621.085,698.927,621.087,697.22Zm-9.693-9.9a.314.314,0,0,1,.106-.232.4.4,0,0,1,.318-.015c.15.032.241.044.3-.035l.031-.042.041.034a.421.421,0,0,0,.336.037.43.43,0,0,1,.331.039.33.33,0,0,1,.1.246.718.718,0,0,1-.7.874.763.763,0,0,1-.095-.006l-.054,0a.743.743,0,0,1-.733-.691A.668.668,0,0,1,611.394,687.321Zm-.187,5.927a23.61,23.61,0,0,0,.368-2.6c.031-.308.063-.616.1-.923.031-.268.121-.446.453-.446h.041c.277.009.463.042.506.411.12,1.045.257,2.081.389,3.083q.076.579.149,1.132v.011l0,.01a3.682,3.682,0,0,1-.929,1.582l-.017.01a.23.23,0,0,1-.09.02.234.234,0,0,1-.182-.122.365.365,0,0,0-.037-.047A2.213,2.213,0,0,1,611.207,693.248Zm8.7,8.564a.489.489,0,0,1-.406.092v0a3.093,3.093,0,0,0-.555.022,1.264,1.264,0,0,1-.963-.135c-.267-.229-.218-.642-.17-1.042a3.873,3.873,0,0,0,.036-.467c-.017-1.392-.031-3.224,0-5.052.009-.422-.167-.428-.46-.437l-.107,0c-.214-.015-.327.012-.394.077a.507.507,0,0,0-.1.374c.017,2.085.015,4.207.013,6.258q0,1.043,0,2.085v1.988c0,2.047,0,4.164.009,6.247a.577.577,0,0,1-.12.442.51.51,0,0,1-.375.11h-.039c-.8-.026-1.643-.026-2.578,0h-.047a.47.47,0,0,1-.35-.1.532.532,0,0,1-.113-.409c.007-1.124.007-2.267.008-3.371,0-1.253,0-2.547.011-3.821a.55.55,0,0,0-.1-.4.509.509,0,0,0-.367-.092h-.035c-.408.007-.573.028-.568.5.014,1.092.013,2.2.012,3.276,0,1.212,0,2.464.017,3.7a.769.769,0,0,1-.159.6.633.633,0,0,1-.463.134c-.041,0-.086,0-.133,0a20.489,20.489,0,0,0-2.243,0,.611.611,0,0,1-.488-.115.659.659,0,0,1-.139-.514c.013-4.29.012-8.649.01-12.866v-3.273a.633.633,0,0,0-.581-.681.657.657,0,0,0-.375.09c-.139.072-.125.187-.109.32a.97.97,0,0,1,.011.127l0,.745c-.007,1.663-.015,3.382,0,5.072a.658.658,0,0,1-.147.531.585.585,0,0,1-.485.09,2.532,2.532,0,0,0-.545.021,1.072,1.072,0,0,1-.908-.148c-.219-.225-.176-.606-.134-.976a3.973,3.973,0,0,0,.034-.437c-.007-3.623-.007-7.3,0-10.919a2.085,2.085,0,0,1,2.387-2.365h2.078c.026,0,.055,0,.085-.006.121-.011.293-.027.35.153a4.489,4.489,0,0,1,.488,1.844c-.184,1.634-.4,3.284-.609,4.878l-.04.3a.666.666,0,0,0,.13.571c.549.681,1.187,1.475,1.8,2.287.085.114.153.169.209.169s.138-.078.226-.193c.107-.139.213-.279.317-.418.386-.51.784-1.037,1.219-1.519a1.4,1.4,0,0,0,.329-1.258c-.182-1.3-.351-2.611-.514-3.882l-.1-.8a4.733,4.733,0,0,1,.492-1.974c.052-.185.243-.171.385-.16.032,0,.065.005.094.005h0c.7,0,1.4,0,2.121,0,.355,0,.711,0,1.064,0a1.969,1.969,0,0,1,1.465.437,1.99,1.99,0,0,1,.732,1.349,2.04,2.04,0,0,1,0,.414c.005,2.081,0,4.2,0,6.252q0,1.564,0,3.129c0,.23,0,.459,0,.689,0,.655,0,1.333.011,2A.6.6,0,0,1,619.908,701.812Z" fill="#fff"/><path d="M582.925,702.427c-.02-1.646-.017-3.32-.014-4.937q0-.88,0-1.759,0-1.089,0-2.177c0-1.426,0-2.9,0-4.353a3.06,3.06,0,0,0-2.925-3.183c-.077,0-.154,0-.229,0-3.5-.017-7.042-.017-10.538,0h-.069a3.036,3.036,0,0,0-3.031,2.962c0,.021,0,.04,0,.062-.022,2.835-.02,5.718-.018,8.506q0,2.523,0,5.049a.366.366,0,0,0,.073.268.419.419,0,0,0,.3.068c.3-.007.606,0,.9,0,.442,0,.9.007,1.346-.016l.088,0a.556.556,0,0,1,.4.119.666.666,0,0,1,.139.514c-.009,1.584-.009,3.2-.009,4.753,0,1.518,0,3.088-.009,4.631,0,.225.029.346.1.416a.523.523,0,0,0,.379.1h.013c3.114-.021,6.27-.021,9.385,0,.231,0,.366-.035.436-.115a.477.477,0,0,0,.059-.38,4.791,4.791,0,0,1,0-.611c0-.735,0-1.474,0-2.212,0-2.151.005-4.376-.015-6.564a.693.693,0,0,1,.147-.531.655.655,0,0,1,.521-.111c.341.02.69.014,1.027.01s.67-.009,1,.008c.228,0,.354-.015.428-.088A.562.562,0,0,0,582.925,702.427Zm-9.713-15.151a.2.2,0,0,1,.2-.2h0l.03,0h1.2c.133,0,.2.071.2.214a.825.825,0,1,1-1.635-.017ZM573,693.707c.2-1.18.338-2.391.475-3.561l.059-.505c.038-.319.2-.376.441-.357.035,0,.07,0,.106,0,.173,0,.389,0,.429.321.134,1.108.273,2.216.416,3.348l.147,1.174-.006.014a4.754,4.754,0,0,1-.968,1.363l-.011.011-.015,0a.156.156,0,0,1-.037,0,.215.215,0,0,1-.144-.056l-.009-.011a3.241,3.241,0,0,0-.347-.431,1.5,1.5,0,0,1-.543-1.262h0Zm8.767,8.106a.5.5,0,0,1-.4.091h0a7.289,7.289,0,0,0-1.144,0,.51.51,0,0,1-.412-.091.584.584,0,0,1-.126-.46c.008-1.019.008-2.055.008-3.057,0-.959,0-1.951.007-2.926,0-.253-.017-.406-.106-.493a.594.594,0,0,0-.419-.1c-.456.01-.56.116-.557.574.017,2.023.015,4.081.013,6.072q0,1.053,0,2.107,0,1.016,0,2.031c0,2.032,0,4.135.01,6.2a.634.634,0,0,1-.133.488.614.614,0,0,1-.466.112c-.749-.031-1.56-.031-2.41,0a.613.613,0,0,1-.476-.115.622.622,0,0,1-.132-.482c.016-1.763.015-3.556.014-5.291,0-.559,0-1.12,0-1.68a.62.62,0,0,0-.943-.6c-.139.067-.133.163-.112.313a.816.816,0,0,1,.011.129l0,.94c-.007,2.013-.014,4.094.011,6.14,0,.283-.037.439-.139.536a.56.56,0,0,1-.411.119l-.1,0c-.781-.039-1.573-.039-2.354,0a.625.625,0,0,1-.488-.113.658.658,0,0,1-.137-.51c.008-2.724.009-5.494.011-8.172,0-2.628,0-5.347.01-8.021,0-.231-.018-.392-.108-.479a.562.562,0,0,0-.427-.095c-.429.014-.526.116-.522.542.012,1.068.011,2.154.01,3.2,0,.84,0,1.708,0,2.562a.675.675,0,0,1-.144.527.548.548,0,0,1-.448.084,2.384,2.384,0,0,0-.556.02,1.127,1.127,0,0,1-.9-.134c-.243-.229-.2-.625-.155-1.009a3.716,3.716,0,0,0,.033-.448c-.009-3.625-.009-7.3,0-10.92a2.056,2.056,0,0,1,1.72-2.335,2.121,2.121,0,0,1,.626,0l.58,0c.473,0,.961.005,1.442-.007h.036c.327,0,.457.143.6.436a4.835,4.835,0,0,1,.2,2.987c-.03.21-.062.428-.087.643-.106.922-.234,1.919-.392,3.047a.908.908,0,0,0,.216.761c.607.74,1.2,1.5,1.705,2.156.1.123.155.173.207.173h0c.051,0,.115-.051.193-.155.619-.809,1.248-1.6,1.835-2.328a.623.623,0,0,0,.11-.52c-.227-1.735-.446-3.455-.655-5.116a4.64,4.64,0,0,1,.481-1.915c.055-.194.241-.179.377-.164.034,0,.066.007.1.007h0c1.062-.007,2.16-.011,3.24,0,.052,0,.1-.006.155-.006a2.027,2.027,0,0,1,2.016,2.193c.009,1.716.006,3.464,0,5.156q0,1.29,0,2.579c0,.361,0,.722,0,1.083,0,1.084,0,2.206.01,3.308A.553.553,0,0,1,581.771,701.813Z" fill="#fff"/><path d="M589.346,662.509c.143.1.284.208.425.314.277.208.565.423.862.61a.555.555,0,0,1,.27.736.475.475,0,0,1-.025.051c-.154.423-.295.871-.42,1.264-.048.154-.1.3-.142.446-.006.3.056.464.221.564a.51.51,0,0,0,.61-.025l.28-.2c.38-.266.773-.54,1.139-.834a.538.538,0,0,1,.41-.186.55.55,0,0,1,.359.132c.018.015.033.03.049.046.252.212.531.41.8.6.128.09.255.18.381.273l.012.009c.279.2.543.4.864.157.3-.229.206-.528.1-.845-.061-.184-.118-.37-.175-.557-.1-.314-.2-.64-.315-.95a.447.447,0,0,1-.039-.345.466.466,0,0,1,.221-.28.381.381,0,0,1,.045-.023c.274-.186.553-.391.823-.589.182-.133.364-.266.547-.4a.58.58,0,0,0,.3-.686c-.1-.321-.373-.366-.653-.366l-.567,0c-.373,0-.757,0-1.136,0a.465.465,0,0,1-.351-.081.475.475,0,0,1-.2-.31l0-.019c-.116-.413-.257-.832-.393-1.238-.047-.14-.094-.281-.14-.421a.546.546,0,0,0-.221-.359.52.52,0,0,0-.4-.093.54.54,0,0,0-.445.444c-.058.181-.116.355-.174.528-.126.372-.255.758-.362,1.145a.484.484,0,0,1-.54.407l-.018,0c-.392-.01-.8-.008-1.191-.006h-.445c-.308,0-.594.028-.711.367C588.9,662.109,589.056,662.3,589.346,662.509Zm1.967.078a1.57,1.57,0,0,1,.6-.09.817.817,0,0,0,.569-.143.975.975,0,0,0,.257-.481,1.493,1.493,0,0,1,.264-.541l.075-.091.013.118a1.355,1.355,0,0,0,.441,1,1.309,1.309,0,0,0,1.045.161l.034.092c-.817.475-1,1.028-.6,1.794l-.077.061c-.744-.631-1.335-.61-1.917.067l-.084-.054a1.449,1.449,0,0,0,.152-1.12,1.306,1.306,0,0,0-.772-.678l-.11-.048Z" fill="#fff"/><path d="M580.566,667.243l.007.005c.149.107.295.216.442.326.3.225.613.457.934.668a.5.5,0,0,1,.261.279.509.509,0,0,1-.01.389l-.015.03c-.122.321-.229.66-.332.988-.043.136-.086.272-.131.408l-.03.09c-.105.314-.206.611.126.845.31.221.553.04.809-.151l.066-.049c.12-.087.241-.172.361-.258.306-.218.623-.443.923-.678a.4.4,0,0,1,.284-.123h.01a.413.413,0,0,1,.286.114l.015.015c.286.219.591.44.887.653.174.127.347.252.519.379.263.192.488.284.743.094a.563.563,0,0,0,.159-.722c-.082-.231-.154-.461-.223-.684-.09-.292-.183-.594-.294-.882a.54.54,0,0,1,.2-.732l.031-.017c.284-.187.566-.395.838-.6.164-.121.328-.242.494-.361.31-.218.406-.42.324-.676a.572.572,0,0,0-.646-.377c-.2.005-.387,0-.573,0-.3,0-.61-.009-.912.012-.5.04-.743-.13-.848-.6a14.521,14.521,0,0,0-.508-1.554.522.522,0,0,0-1,0c-.1.275-.189.553-.277.822l-.038.115c-.387,1.2-.4,1.206-1.65,1.206-.193,0-.386,0-.585,0q-.147,0-.294,0a.658.658,0,0,0-.1-.008.566.566,0,0,0-.544.393A.55.55,0,0,0,580.566,667.243Zm2.1.069c.938.118,1.412-.232,1.541-1.125l.1-.005a1.485,1.485,0,0,0,.566,1.005,1.266,1.266,0,0,0,.992.079l.03.1a1.257,1.257,0,0,0-.587,1.875l-.082.058a1.179,1.179,0,0,0-.774-.476,1.179,1.179,0,0,0-1.147.474l0,0-.081-.059v0a1.189,1.189,0,0,0-.262-1.661,1.167,1.167,0,0,0-.315-.164Z" fill="#fff"/><path d="M598.077,667.31h0c.141.1.281.205.42.31.252.188.513.383.78.55a.6.6,0,0,1,.328.314.607.607,0,0,1,.012.464.588.588,0,0,1-.044.091,10.754,10.754,0,0,0-.353,1.034c-.047.154-.094.307-.144.459a.581.581,0,0,0,.157.734c.252.188.479.1.742-.093l.4-.286c.323-.231.657-.469.974-.715a.449.449,0,0,1,.34-.151.476.476,0,0,1,.314.118.253.253,0,0,1,.028.029c.268.215.56.422.841.622.145.1.29.206.433.312l.016.011c.264.194.512.376.814.159.327-.233.226-.543.119-.871l-.005-.016c-.055-.166-.108-.333-.161-.5-.1-.316-.2-.641-.321-.953a.5.5,0,0,1,.2-.673l.04-.018c.322-.215.646-.456.96-.69.136-.1.271-.2.408-.3.286-.21.374-.394.3-.638a.551.551,0,0,0-.623-.394l-.532,0c-.385,0-.785-.007-1.177.008a.477.477,0,0,1-.371-.075.5.5,0,0,1-.215-.32.249.249,0,0,1-.006-.038c-.158-.561-.352-1.128-.555-1.707a.512.512,0,0,0-.495-.39h-.03a.5.5,0,0,0-.481.372c-.1.291-.2.584-.288.869l-.023.07c-.389,1.2-.4,1.215-1.65,1.215l-.549,0c-.092,0-.183,0-.275,0h-.057c-.319,0-.549.072-.639.379S597.78,667.106,598.077,667.31Zm2.011-.007a1.371,1.371,0,0,0,1.1-.213,1.277,1.277,0,0,0,.363-.974V666.1l.056-.073.041.062c.618,1.094.618,1.094,1.595,1.227l.071.01-.034.064a1.085,1.085,0,0,1-.375.36.736.736,0,0,0-.376.434,1.118,1.118,0,0,0,.084.588,2.387,2.387,0,0,1,.128.57l.011.144-.1-.107a1.432,1.432,0,0,0-.992-.577h-.011a1.3,1.3,0,0,0-.91.489l-.077-.063a1.213,1.213,0,0,0-.314-1.684,1.243,1.243,0,0,0-.284-.145Z" fill="#fff"/><path d="M593.027,676.56h.029a4.122,4.122,0,0,0,.026-8.244h-.026a4.129,4.129,0,0,0-4.123,4.1v.019A4.147,4.147,0,0,0,593.027,676.56Zm-3.03-4.2a3.11,3.11,0,0,1,3.089-3h.022a3.072,3.072,0,0,1-.038,6.144h-.039A3.071,3.071,0,0,1,590,672.4Z" fill="#fff"/><path d="M612.141,684.251h.042a4.12,4.12,0,0,0,.037-8.239h-.042a4.12,4.12,0,0,0-.037,8.239Zm-3.017-4.163a3.03,3.03,0,0,1,3.025-3.01h.057a3.077,3.077,0,0,1,3.055,3.056,3.121,3.121,0,0,1-3.1,3.083,3.071,3.071,0,0,1-3.037-3.107Z" fill="#fff"/><path d="M573.985,684.252h.051a4.122,4.122,0,0,0,.047-8.243h-.051a4.123,4.123,0,0,0-4.12,4.074v.04A4.138,4.138,0,0,0,573.985,684.252Zm-2.143-6.262a3.063,3.063,0,0,1,2.172-.911l.01.049v-.05h.03a3.037,3.037,0,0,1,3.033,3v.027a3.076,3.076,0,0,1-3.046,3.108,3.1,3.1,0,0,1-3.088-3.046A3.058,3.058,0,0,1,571.842,677.99Z" fill="#fff"/><path d="M593.059,694.953c.086.108.263.149.531.141.251-.012.381-.049.448-.13a.461.461,0,0,0,.051-.364,1.469,1.469,0,0,1-.005-.3.576.576,0,0,0-.081-.436.534.534,0,0,0-.385-.108l-.073,0c-.255.011-.407.059-.479.152s-.079.243-.024.5l0,.013,0,.011A.581.581,0,0,0,593.059,694.953Z" fill="#fff"/><path d="M589.317,685.844h0c.107-.027.111-.113.094-.289a.858.858,0,0,1,0-.2,2.056,2.056,0,0,0,0-.26c0-.629,0-.629-.572-.651l-.081,0a.443.443,0,0,0-.352.08c-.068.072-.055.2-.041.328a.7.7,0,0,1-.016.332.805.805,0,0,1,.009.325c-.019.173-.025.283.083.329A1.438,1.438,0,0,0,589.317,685.844Z" fill="#fff"/><path d="M598.252,685.9h.046a.491.491,0,0,0,.355-.1c.087-.089.078-.24.07-.4a1.6,1.6,0,0,1,0-.268.584.584,0,0,1,0-.288c.028-.186.038-.3-.124-.382a.591.591,0,0,0-.33-.1.561.561,0,0,0-.115.012.584.584,0,0,0-.465.65,1.9,1.9,0,0,1,0,.283.557.557,0,0,0,.056.446C597.823,685.849,597.98,685.9,598.252,685.9Z" fill="#fff"/><path d="M608.162,692.1a3.793,3.793,0,0,0-.451.04h0c-.168.021-.228.055-.225.2,0,.232,0,.464,0,.7,0,.116,0,.232,0,.348s.041.166.182.193c.4.077.6.07.717-.027s.161-.288.161-.67c0-.414-.016-.626-.119-.716A.382.382,0,0,0,608.162,692.1Z" fill="#fff"/><path d="M617.634,692.146a1.045,1.045,0,0,1-.341-.016,1.832,1.832,0,0,0-.22-.021.2.2,0,0,0-.229.145,3.9,3.9,0,0,0-.026,1.221c0,.061.024.074.12.094l.035.007c.366.083.574.076.7-.02s.172-.3.174-.667V692.4a.292.292,0,0,0-.059-.229A.174.174,0,0,0,617.634,692.146Z" fill="#fff"/><path d="M612.705,701.455h-.015c-.535,0-.54.216-.55.609l0,.071c0,.25,0,.436.106.543a.636.636,0,0,0,.457.127h.015a.545.545,0,0,0,.408-.114c.1-.11.084-.3.061-.544l0-.041,0-.033c.028-.2.054-.384-.042-.494A.574.574,0,0,0,612.705,701.455Z" fill="#fff"/><path d="M579.584,692.162l-.005,0a.6.6,0,0,0-.336-.1.607.607,0,0,0-.508.271.614.614,0,0,0-.1.394,2.343,2.343,0,0,1,0,.335.505.505,0,0,0,.046.386c.067.086.2.132.457.156a.588.588,0,0,0,.474-.09c.117-.115.1-.334.087-.587,0-.041-.005-.082-.007-.123a.511.511,0,0,1,0-.254C579.731,692.359,579.739,692.241,579.584,692.162Z" fill="#fff"/><path d="M570.247,692.157h0a1,1,0,0,0-.382-.088.47.47,0,0,0-.27.075.729.729,0,0,0-.25.641,1.363,1.363,0,0,1,0,.221.556.556,0,0,0,.056.438c.077.094.233.142.5.155a.572.572,0,0,0,.408-.091c.089-.088.082-.237.075-.408a1.972,1.972,0,0,1,0-.244.58.58,0,0,1,0-.307C570.414,692.354,570.424,692.231,570.247,692.157Z" fill="#fff"/><path d="M574.941,701.561a.551.551,0,0,0-.392-.106h-.036a.626.626,0,0,0-.479.145c-.068.085-.079.217-.035.441,0,.062,0,.111-.007.159-.015.21-.027.391.072.495a.534.534,0,0,0,.388.108h.047a.619.619,0,0,0,.451-.133c.092-.1.1-.254.091-.51,0-.056,0-.112,0-.166A.6.6,0,0,0,574.941,701.561Z" fill="#fff"/></g></svg>