<svg xmlns="http://www.w3.org/2000/svg" width="54.077" height="55" viewBox="0 0 54.077 55"><g transform="translate(-90.023 -658.674)"><path d="M142.865,677.635a27.037,27.037,0,0,0-51.642,16.034l1.517-.475a25.579,25.579,0,0,1-1.13-7.129h2.9a.8.8,0,0,0,.794-.795v-3.351l.037-.036,2.491-2.492a.8.8,0,0,0,.12-.971h0l-2.76-4.6a.781.781,0,0,0-.435-.32,25.228,25.228,0,0,1,12.582-11.293l5.222,2.611a.8.8,0,0,0,.8-.051L116.026,663l3.527-.881a.8.8,0,0,0,.6-.771v-.882a25.6,25.6,0,0,1,15.94,8.37h-2.94a.787.787,0,0,0-.562.234l-3.451,3.45H123.95a.8.8,0,0,0-.794.794v6.44a.8.8,0,0,0,.794.8h3.681a.793.793,0,0,0,.661-.354l1.6-2.407h4.636l.036.064,3.414,5.978a.8.8,0,0,0,.689.4h3.561v-1.589l-3.091,0-.036-.064-3.415-5.977a.794.794,0,0,0-.689-.4h-5.529a.791.791,0,0,0-.66.354l-1.6,2.407h-2.461V674.1h4.726a.787.787,0,0,0,.563-.233l3.451-3.451H137.4a25.445,25.445,0,1,1-41.615,29.247l-1.333.866a27.07,27.07,0,0,0,11.189,9.675c-5.723,2.361-10.188,2.48-12.4.27-4.206-4.207.286-16.348,10.449-28.27l-1.207-1.032c-11.059,12.968-15.323,25.47-10.37,30.427a7.875,7.875,0,0,0,5.741,2.061,24.845,24.845,0,0,0,9.857-2.605,27.163,27.163,0,0,0,9.4,1.682h.012a27.028,27.028,0,0,0,25.748-35.1Zm-46.589,1.071-2.322,2.322a.792.792,0,0,0-.232.562v2.886H91.635a25.3,25.3,0,0,1,2.334-9.454h.1Zm22.287-17.978-3.079.769a.864.864,0,0,0-.248.11l-2.376,1.585-.066-.034-3.4-1.7c.024-.008.047-.019.072-.026a25.308,25.308,0,0,1,9.1-1.114Z" fill="#fff"/><path d="M120.152,665.95h0a.8.8,0,0,0-.794-.795,7.476,7.476,0,0,0-5.27,2.183l-2.316,2.316-8.754-2.626a.78.78,0,0,0-.228-.034.793.793,0,0,0-.561.233l-1.838,1.841a.793.793,0,0,0,.24,1.288l7.227,3.212-1.623,1.623-.069-.018-3.175-.793a.786.786,0,0,0-.192-.024.8.8,0,0,0-.563.233l-1.839,1.839a.8.8,0,0,0,0,1.123.762.762,0,0,0,.154.119L105,680.355l2.642,4.4a.789.789,0,0,0,.584.381.849.849,0,0,0,.66-.227l1.839-1.839a.8.8,0,0,0,.21-.755l-.811-3.241.051-.05,1.565-1.549,3.1,7.187a.8.8,0,0,0,1.255.282l1.951-1.721a.8.8,0,0,0,.236-.822l-2.612-8.817,2.432-2.409A7.424,7.424,0,0,0,120.152,665.95Zm-17.818,3.421.685-.685,7.477,2.243-1.434,1.434Zm14.276,13-.749.661-2.912-6.754,1.435-1.421Zm-7.934-4.105a.8.8,0,0,0-.212.758l.812,3.244-.8.8-2.237-3.729a.79.79,0,0,0-.271-.271l-3.729-2.238.8-.8.069.018,3.176.794a.8.8,0,0,0,.754-.21l8.171-8.17a5.789,5.789,0,0,1,3.135-1.631l.173-.031-.028.174a5.762,5.762,0,0,1-1.528,3.092Z" fill="#fff"/><path d="M125.229,704.233a.788.788,0,0,0,.561.233h4.6a.788.788,0,0,0,.563-.234l3.681-3.681a.788.788,0,0,0,.232-.561v-3.439l.021-.032,3.526-5.288A.789.789,0,0,0,137.76,690h-3.191l-2.546-5.083a.79.79,0,0,0-.711-.439h-9.2a.8.8,0,0,0-.794.794v7.362a.794.794,0,0,0,.792.794H125v10.247A.787.787,0,0,0,125.229,704.233Zm-2.318-12.4v-5.775h7.916l2.546,5.083a.792.792,0,0,0,.711.439h2.2l-2.864,4.287a.794.794,0,0,0-.133.441v3.351l-.037.036-3.178,3.182h-3.478V692.632a.794.794,0,0,0-.792-.8Z" fill="#fff"/><path d="M108.311,707.228h0a.791.791,0,0,0,.473-.158l3.681-2.761a.8.8,0,0,0,.319-.636v-2.38l.047-.038,4.255-3.4a.791.791,0,0,0,.3-.62v-4.6a.8.8,0,0,0-.793-.794H111.4l-.037-.036-2.49-2.49a.788.788,0,0,0-.563-.234h-4.6a.8.8,0,0,0-.794.795v6.44a.8.8,0,0,0,.794.794h3.806v9.327A.8.8,0,0,0,108.311,707.228Zm-3.8-11.71v-4.852h3.471l.037.036,2.49,2.491a.785.785,0,0,0,.559.233h4.73v3.261l.163.032-.205.17-4.256,3.4a.792.792,0,0,0-.3.621v2.362l-2.091,1.568v-8.532a.8.8,0,0,0-.795-.794Z" fill="#fff"/></g></svg>