<svg xmlns="http://www.w3.org/2000/svg" width="48.369" height="50" viewBox="0 0 48.369 50"><g transform="translate(-729.695 -661.174)"><path d="M747.281,700.93a2.312,2.312,0,0,0-2.5-2.489c-.318,0-.621,0-.925,0-.421,0-.84,0-1.261,0-.048,0-.1,0-.154,0A2.519,2.519,0,0,1,740,695.846c-.009-6.423-.009-12.94,0-19.368,0-.064,0-.134,0-.2a2.526,2.526,0,0,1,2.518-2.391c.044,0,.087,0,.131,0l.735,0c.492,0,.986,0,1.48,0,.08,0,.152.006.225,0a2.26,2.26,0,0,0,2.178-2.33c.031-2.677.031-5.387,0-8.059,0-.073,0-.142,0-.212a2.248,2.248,0,0,0-2.4-2.109c-1.084,0-2.158,0-3.236,0h-1.614a9.823,9.823,0,0,0-2.552.344,10.412,10.412,0,0,0-7.757,10.108q-.015,4.828,0,9.655,0,2.412,0,4.824,0,7.2-.006,14.384a12.616,12.616,0,0,0,.191,2.19,10.4,10.4,0,0,0,8.956,8.376,33.369,33.369,0,0,0,3.995.1c.628-.009,1.277-.021,1.92-.012a2.454,2.454,0,0,0,.453,0,2.3,2.3,0,0,0,2.071-2.5c0-.813,0-1.612,0-2.413l0-1.206c0-.455,0-.912,0-1.367C747.288,702.767,747.292,701.841,747.281,700.93Zm-5.56-38.263a.559.559,0,0,1,.415-.119c.486.009.973.009,1.461,0,.4,0,.8,0,1.2,0,.762,0,1.1.349,1.1,1.131v7.7c0,.789-.345,1.13-1.149,1.138-.857.01-1.735-.007-2.607.032h-.061a.507.507,0,0,1-.363-.11.559.559,0,0,1-.123-.419c.01-1.125.009-2.247.008-3.37V666.4c0-1.082,0-2.2-.013-3.294A.587.587,0,0,1,741.721,662.667Zm-1.48,46.572a.543.543,0,0,1-.131.426.484.484,0,0,1-.346.107c-.042,0-.085,0-.127,0a8.962,8.962,0,0,1-8.55-9.018c-.012-8.805-.012-17.735,0-26.541a25.886,25.886,0,0,1,.125-4.207,9.057,9.057,0,0,1,8.523-7.447.513.513,0,0,1,.388.109.552.552,0,0,1,.119.418q0,1.631,0,3.262v3.246q0,1.616,0,3.232a.883.883,0,0,1-.323.735,3.846,3.846,0,0,0-1.315,3.015v19.18a3.886,3.886,0,0,0,1.348,3.054.793.793,0,0,1,.289.655C740.227,702.7,740.227,705.992,740.241,709.239Zm5.669-.552a.952.952,0,0,1-1.042,1.093c-.407.006-.808,0-1.212,0-.518,0-1.038,0-1.556.008h-.024a.478.478,0,0,1-.353-.112.577.577,0,0,1-.121-.43q.008-2.186.005-4.37h0l0-1.4c0-1.041,0-2.081-.006-3.12a.627.627,0,0,1,.127-.477.61.61,0,0,1,.458-.109c.579.034,1.169.033,1.744.032.29,0,.58,0,.868,0,.769.01,1.113.357,1.113,1.123Z" fill="#fff"/><path d="M753.524,711.154a28.817,28.817,0,0,0,3.863-.382,25.058,25.058,0,0,0,20.677-24.685h0V686a25.016,25.016,0,0,0-23.786-24.8c-.228-.012-.413-.022-.56-.022a.631.631,0,0,0-.4.08c-.106.1-.111.393-.119.881v.055c0,.328.072.362.379.366a22.586,22.586,0,0,1,6.543,1.062,23.612,23.612,0,0,1-5.884,46.119c-1.021.048-1.021.048-1.033,1.035v.036c0,.164.015.254.054.294A.387.387,0,0,0,753.524,711.154Z" fill="#fff"/><path d="M764.249,683.1c-.05-.049-.145-.064-.342-.066-.729.008-1.455.007-2.184.007-.819,0-1.64,0-2.46.009a.7.7,0,0,1-.515-.139.641.641,0,0,1-.14-.5c.015-.9.013-1.81.012-2.692,0-.684,0-1.367,0-2.05,0-.134-.014-.211-.047-.245a.36.36,0,0,0-.235-.05c-1.87.018-3.766.018-5.634,0-.144,0-.214.016-.251.052s-.054.121-.054.273c.007.672.006,1.346,0,2.02,0,.844,0,1.716.013,2.574a.8.8,0,0,1-.155.609.748.748,0,0,1-.582.154c-.946-.025-1.906-.022-2.835-.018-.6,0-1.205,0-1.808,0-.162,0-.233.014-.272.053a.37.37,0,0,0-.057.254c.015,1.87.015,3.767,0,5.635a.375.375,0,0,0,.055.254c.039.039.123.057.274.057,1.113-.011,2.228-.01,3.343-.007h1.262c.356,0,.531,0,.647.113s.117.288.117.635l0,1.1c0,1.128.005,2.3-.009,3.442,0,.18.016.275.062.32a.422.422,0,0,0,.289.056c.651-.025,1.313-.02,1.953-.015q.822,0,1.648,0c.662-.005,1.325-.006,1.99.005a.428.428,0,0,0,.232-.044c.034-.034.05-.113.05-.248-.006-.687-.005-1.375,0-2.063,0-.878,0-1.787-.011-2.679a.652.652,0,0,1,.141-.5.721.721,0,0,1,.517-.139c.816.011,1.633.007,2.451.008.745,0,1.494,0,2.241.005.156,0,.25-.016.293-.059a.427.427,0,0,0,.062-.282c-.022-1.991-.022-3.8,0-5.535A.452.452,0,0,0,764.249,683.1Zm-1.326,4.317a.509.509,0,0,1-.11.375.522.522,0,0,1-.381.118c-.6-.01-1.209-.008-1.81-.006l-.709,0c-.452,0-.905,0-1.366,0-.335,0-.672,0-1-.01-.137,0-.2.013-.235.045a.385.385,0,0,0-.053.25c.007.733.006,1.466.006,2.2,0,.863,0,1.727.01,2.591a.515.515,0,0,1-.633.617c-.736-.028-1.5-.028-2.263,0-.03,0-.06,0-.091,0a.558.558,0,0,1-.4-.126.653.653,0,0,1-.14-.488c.01-.7.009-1.4.007-2.109,0-.814,0-1.656.013-2.484.007-.243-.015-.366-.077-.429a.532.532,0,0,0-.4-.081c-.809.022-1.631.019-2.428.018-.694,0-1.411,0-2.117.01a.548.548,0,0,1-.664-.688c.031-.795.017-1.59,0-2.263a.556.556,0,0,1,.116-.415.578.578,0,0,1,.43-.131c.752.007,1.5.006,2.254.006q1.269-.008,2.538.008c.164,0,.248-.016.289-.055s.056-.13.055-.283c-.012-.857-.011-1.715-.01-2.573,0-.739,0-1.479-.006-2.218a.609.609,0,0,1,.128-.457.581.581,0,0,1,.433-.119c.752.024,1.565.024,2.413,0a.551.551,0,0,1,.411.116.593.593,0,0,1,.129.435c-.008.737-.007,1.472-.006,2.208,0,.862,0,1.724-.011,2.587a.433.433,0,0,0,.062.3c.044.044.128.062.313.062.761-.007,1.522-.007,2.278-.007.811,0,1.612,0,2.417-.008h.022a.615.615,0,0,1,.466.134.576.576,0,0,1,.12.451C762.9,685.792,762.908,686.594,762.923,687.414Z" fill="#fff"/><path d="M769.417,677.515c-.006-.011-.011-.022-.017-.032a3.512,3.512,0,0,0-.715-1.108l-.009,0a1.532,1.532,0,0,0-.375.252,2.557,2.557,0,0,1-.355.249.4.4,0,0,0-.065.039.676.676,0,0,1-.112.066c-.074.031-.12.066-.129.095s.013.11.077.218c.517.883.517.882,1.41.4a2.4,2.4,0,0,0,.251-.138Z" fill="#fff"/><path d="M756.521,702.991l-.1-.018a2.532,2.532,0,0,0-.412-.046.55.55,0,0,0-.353.1.447.447,0,0,0-.129.363c0,.06,0,.123-.006.189a1.032,1.032,0,0,0,.263.936,1.466,1.466,0,0,1,.617-.123c.358-.016.484-.043.511-.273C756.97,703.569,756.965,703.055,756.521,702.991Z" fill="#fff"/><path d="M770.629,692.027l.017-.055a.367.367,0,0,0,.027-.116.14.14,0,0,0-.029-.013c-.289-.1-.583-.194-.892-.291l-.328-.1a1.756,1.756,0,0,0-.236.559,2.843,2.843,0,0,1-.149.423c-.011.022-.025.044-.038.067a.32.32,0,0,0-.044.086.158.158,0,0,0,.033.023l.083.048c.575.333.873.436,1.063.357S770.46,692.658,770.629,692.027Z" fill="#fff"/><path d="M770.779,680.388l-.125.022c-.012-.034-.034-.1-.052-.159-.16-.52-.257-.835-.394-.9s-.435.06-.927.268a1.779,1.779,0,0,0-.291.142,5.378,5.378,0,0,0,.451,1.133.2.2,0,0,0,.034-.005c.282-.088.571-.181.858-.274l.307-.1c.02-.008.031-.029.016-.105l.123-.024Z" fill="#fff"/><path d="M764.942,671.971c-.109-.091-.221-.18-.342-.276l-.123-.1c-.168.215-.328.414-.487.612-.358.461-.358.461.1.843.505.42.5.421.932-.046.248-.267.409-.441.4-.538S765.226,672.209,764.942,671.971Z" fill="#fff"/><path d="M770.01,688.725a3.376,3.376,0,0,1-.074.464c-.1.571-.1.571.452.688.4.087.63.14.722.081s.134-.295.207-.685a1.2,1.2,0,0,0,.05-.516,1.131,1.131,0,0,0-.486-.113c-.122-.018-.24-.037-.356-.056l-.286-.045a.466.466,0,0,0-.092-.01.142.142,0,0,0-.089.022A.232.232,0,0,0,770.01,688.725Z" fill="#fff"/><path d="M762.806,670.431c-.2-.121-.392-.238-.591-.353a1.476,1.476,0,0,0-.415-.2l-.015,0c-.058.017-.149.191-.265.411-.376.717-.376.717.276,1.139l.062.041c.165.108.275.147.348.128s.134-.1.207-.25a8.521,8.521,0,0,1,.519-.828c-.011-.023-.034-.038-.084-.065Z" fill="#fff"/><path d="M758.407,669.834a.091.091,0,0,0-.006.05.388.388,0,0,0,.137.036l.042.007a1.5,1.5,0,0,1,.448.184c.275.151.41.208.535.093a3.032,3.032,0,0,0,.485-1.075l.006-.017a.159.159,0,0,0,.015-.072c-.414-.158-.809-.3-1.207-.451l-.049,0-.02.039-.05.153C758.628,669.123,758.509,669.48,758.407,669.834Z" fill="#fff"/><path d="M755.533,668.837l-.028.172a.831.831,0,0,0,0,.179l.139.029c.538.129.836.2.971.116s.195-.377.308-.909a1.075,1.075,0,0,1,.046-.2c.038-.094.028-.118.027-.121s-.021-.032-.132-.065c-.579-.173-.879-.237-1.029-.145S755.623,668.267,755.533,668.837Z" fill="#fff"/><path d="M771,682.382c-.139-.014-.278-.025-.41-.025-.349,0-.638.08-.689.4a.884.884,0,0,0,.392,1.085.859.859,0,0,1,.594-.1c.318.021.432.012.456-.275,0-.044.01-.093.016-.144a1.22,1.22,0,0,0-.078-.8A.4.4,0,0,0,771,682.382Z" fill="#fff"/><path d="M767.623,695.251c-.01.023-.01.034-.009.035.01.026.106.064.146.08a.873.873,0,0,1,.095.042,2.13,2.13,0,0,1,.37.264c.236.193.4.318.518.243a1.761,1.761,0,0,0,.509-.731c.057-.116.115-.234.177-.345a.245.245,0,0,0-.031-.04c-.376-.2-.751-.4-1.127-.594l-.032-.021c-.075.108-.132.2-.19.3A7.991,7.991,0,0,0,767.623,695.251Z" fill="#fff"/><path d="M767,696.989c-.112-.086-.217-.164-.326-.244l-.074-.054-.084.093-.111.123c-.583.7-.583.7.012,1.3l.067.068a.6.6,0,0,0,.316.2c.075,0,.168-.08.311-.254l.036-.044c.27-.329.434-.528.42-.646S767.343,697.253,767,696.989Z" fill="#fff"/><path d="M765.08,699.387c-.1-.1-.2-.2-.279-.285l-.031-.031a1.187,1.187,0,0,1-.11-.125c-.035-.048-.063-.069-.076-.071h0c-.018,0-.057.016-.141.083-.845.677-.845.677-.179,1.533l.051.068c.03.041.061.083.094.121.016.017.034.034.053.051.024-.014.045-.028.068-.043.092-.079.205-.158.319-.238.273-.191.531-.372.605-.627C765.456,699.748,765.212,699.513,765.08,699.387Z" fill="#fff"/><path d="M766.9,673.884c-.031-.028-.065-.054-.1-.082l-.308.274c-.665.622-.665.622-.112,1.327l.027.034c.086.112.15.167.2.173s.127-.031.24-.12c.44-.343.73-.583.737-.773S767.369,674.308,766.9,673.884Z" fill="#fff"/><path d="M762.3,700.824a.492.492,0,0,0-.083-.144,2.559,2.559,0,0,1-.241.109,1.618,1.618,0,0,0-.775.49c-.092.159.015.332.2.6a2.131,2.131,0,0,1,.241.4l.016.047c.039.107.063.156.134.171.112-.065.233-.126.356-.187a1.7,1.7,0,0,0,.722-.512c.07-.115-.1-.319-.258-.517a2.332,2.332,0,0,1-.275-.382Z" fill="#fff"/><path d="M759.5,702.07a.4.4,0,0,0-.111.024c-.551.174-.842.266-.915.408s.025.434.2.961c.012.036.025.071.037.1s.031.086.045.13a.091.091,0,0,0,.088.071h.007a4.056,4.056,0,0,0,1.2-.532c.027-.027-.111-.28-.17-.388a2.279,2.279,0,0,1-.164-.344,1.572,1.572,0,0,0-.061-.153,1.63,1.63,0,0,1-.066-.169C759.566,702.108,759.554,702.07,759.5,702.07Z" fill="#fff"/><path d="M771.576,685.8c.013-.1.028-.208-.011-.252-.02-.022-.079-.058-.249-.058h-.081c-1.023.027-1.023.027-1.023.978,0,.35,0,.35.947.374l.126,0c.2.008.258-.034.28-.059.039-.044.024-.15.011-.253a4.8,4.8,0,0,0,0-.734Z" fill="#fff"/><path d="M753.475,669.053a.353.353,0,0,0,.237-.057c.043-.045.04-.142.038-.245a1.3,1.3,0,0,1,0-.177c.007-.082.007-.164.007-.246a2.217,2.217,0,0,1,.018-.353.325.325,0,0,0-.025-.244.383.383,0,0,0-.273-.073c-.136,0-.211.014-.245.051s-.043.113-.03.232a3.83,3.83,0,0,1,0,.415l-.007.119v.12c0,.047,0,.1,0,.157,0,.1-.008.2.034.244A.362.362,0,0,0,753.475,669.053Z" fill="#fff"/><path d="M753.209,704.386a.324.324,0,0,0,.023.232c.05.055.2.058.3.052a.338.338,0,0,0,.225-.061.31.31,0,0,0,.025-.214,5.728,5.728,0,0,1-.024-.807c.005-.142-.009-.221-.046-.259a.362.362,0,0,0-.228-.05.352.352,0,0,0-.247.065.318.318,0,0,0-.027.23,3.423,3.423,0,0,1,0,.417v.017A3.175,3.175,0,0,1,753.209,704.386Z" fill="#fff"/></g></svg>