<svg xmlns="http://www.w3.org/2000/svg" width="55" height="38.528" viewBox="0 0 55 38.528"><g transform="translate(-248.724 -666.91)"><path d="M299.587,666.916H252.218a3.276,3.276,0,0,0-3.164,1.886,5.087,5.087,0,0,0-.229.557c-.031.084-.062.17-.1.253v33.117c.927,2.218,1.667,2.7,4.14,2.7h30.685a1.4,1.4,0,0,0,.989-.264.582.582,0,0,0,.155-.444c0-.333-.14-.674-1.111-.674H252.466c-1.649,0-2.352-.693-2.352-2.318v-31.22a1.95,1.95,0,0,1,2.21-2.208h47.819a1.954,1.954,0,0,1,2.192,2.227v31.308a1.957,1.957,0,0,1-1.651,2.206,1.934,1.934,0,0,1-.558,0h-5.593c-.532,0-.828.239-.832.672a.653.653,0,0,0,.177.484.881.881,0,0,0,.639.222l1.248.007c1.552.01,3.157.019,4.734-.019h.011a3.156,3.156,0,0,0,2.956-2.011c.07-.152.127-.309.182-.461.024-.07.05-.14.076-.209V669.616C302.791,667.4,302.051,666.916,299.587,666.916Z" fill="#fff"/><path d="M290.4,689.81c.725-.3,1.46-.624,2.2-.943q.888-.369,1.788-.754a1.57,1.57,0,0,0,1.114-1.519,1.587,1.587,0,0,0-1.128-1.5c-5.393-2.334-10.857-4.707-16.254-7.058a4.5,4.5,0,0,0-3.809.011c-2.694,1.189-5.439,2.378-8.094,3.528L263.4,682.8l-5.482,2.375a1.494,1.494,0,0,0-.967,1.4,1.39,1.39,0,0,0,.809,1.387c1.906.865,3.793,1.675,5.225,2.283a.671.671,0,0,0,.889-.333.688.688,0,0,0-.319-.919l-.006,0-.031-.013c-.106-.055-.215-.1-.326-.15l-.117-.05-4.2-1.82a.772.772,0,0,0-.08-.03.6.6,0,0,1-.391-.318l-.051-.107.3-.133c.15-.067.3-.132.444-.2l3.938-1.705c3.857-1.67,7.844-3.4,11.759-5.114a3.3,3.3,0,0,1,2.84-.017c5.219,2.28,10.617,4.625,16.042,6.968l.05.019a.437.437,0,0,1,.321.324l.025.1-7.63,3.314v-2.1a1.575,1.575,0,0,0-1.242-1.823,12.708,12.708,0,0,0-2.972-.7,46.184,46.184,0,0,0-12.013,0,10.614,10.614,0,0,0-3.243.825,1.39,1.39,0,0,0-.958,1.278v1.821c0,1.625,0,3.3.01,4.957a1.548,1.548,0,0,0,1.48,1.612h.145c5.7.012,11.465.012,17.155,0a1.619,1.619,0,0,0,1.135-.416,1.561,1.561,0,0,0,.5-1.094v-.15c.005-.271,0-.533,0-.8v-.4c0-1.508.026-1.549,1.406-2.146l.033-.015a.952.952,0,0,1,.345-.1.265.265,0,0,1,.15.043c.122.081.147.249.146.475-.013,2.3-.013,4.836,0,7.965a.651.651,0,0,1-.408.689,2.3,2.3,0,0,0-1.322,2.137c-.009.857-.011,1.649,0,2.424.006.631.236.857.875.863,1.021.008,2.054.008,3.073,0,.635-.005.885-.246.892-.86.012-.793.024-1.613,0-2.417a2.325,2.325,0,0,0-1.289-2.116.7.7,0,0,1-.44-.74c.008-2.879.008-5.813,0-8.705A.7.7,0,0,1,290.4,689.81Zm-23.011-1.683h0a.708.708,0,0,1,.589-.8,17.7,17.7,0,0,1,4.047-.716,46.77,46.77,0,0,1,10.07.2,13.558,13.558,0,0,1,2.432.539.656.656,0,0,1,.529.743c-.019.636-.037,1.488.007,2.342a.658.658,0,0,1-.132.514.749.749,0,0,1-.577.157c-2.039-.012-4.111-.011-6.116-.009h-4.112c-1.977,0-4.024,0-6.037.009a.76.76,0,0,1-.568-.16.659.659,0,0,1-.132-.521C267.422,689.7,267.422,688.922,267.386,688.127Zm17.675,5.087c-.025,1.287-.078,1.338-1.422,1.338h-4.065c-3.738,0-7.605,0-11.409.009a.807.807,0,0,1-.622-.174.767.767,0,0,1-.158-.6v-.078c.027-1.187.084-1.23,1.329-1.231H278.1c2.053,0,4.179,0,6.269-.012a.755.755,0,0,1,.552.154.7.7,0,0,1,.145.528Zm5.135,8.752,0,0a11.32,11.32,0,0,1,.04,1.222v.505a.3.3,0,0,1-.053.217.311.311,0,0,1-.2.132.272.272,0,0,1-.057.005h-.513c-.593,0-.891,0-1.064-.174s-.174-.468-.173-1.055v-.7a1.018,1.018,0,0,1,2.022-.145Z" fill="#fff"/><path d="M259.613,674.608v-.063a3.3,3.3,0,0,0-3.239-3.307h-.019a3.328,3.328,0,0,0-3.308,3.232,3.291,3.291,0,0,0,3.219,3.322h.083A3.27,3.27,0,0,0,259.613,674.608Zm-1.385-.076a1.857,1.857,0,0,1-.551,1.327h0a1.859,1.859,0,0,1-1.321.546l-.019-.117h-.017v.116a1.888,1.888,0,0,1-1.88-1.887,1.917,1.917,0,0,1,1.918-1.9,1.894,1.894,0,0,1,1.873,1.915Z" fill="#fff"/><path d="M272.627,673.48c.525,0,.814-.245.814-.689,0-.571-.509-.691-.933-.691H262.6c-.554,0-.893.253-.9.678a.6.6,0,0,0,.165.455,1.035,1.035,0,0,0,.757.247h10.012Z" fill="#fff"/><path d="M262.538,675.555c-.506,0-.835.271-.838.69s.324.679.832.685c.55.007,1.1,0,1.652,0h3.252c.539,0,.822-.236.822-.681s-.294-.694-.82-.694C265.8,675.547,264.151,675.548,262.538,675.555Z" fill="#fff"/></g></svg>