<svg xmlns="http://www.w3.org/2000/svg" width="46.983" height="55.1" viewBox="0 0 46.983 55.1"><g transform="translate(-889.484 -658.149)"><path d="M912.813,658.149h0a4.146,4.146,0,0,0-4.14,4.137v1.394a4.14,4.14,0,0,0,8.28,0v-1.387a4.141,4.141,0,0,0-4.136-4.144Zm2.8,5.531a2.8,2.8,0,0,1-5.6,0l-.005-1.384a2.809,2.809,0,0,1,2.8-2.794h0a2.8,2.8,0,0,1,2.8,2.791Z" fill="#fff"/><path d="M915.842,708.943A11.589,11.589,0,0,0,922.7,706.7a.7.7,0,0,0,.072-.062l13.5-13.221a.669.669,0,0,0,.029-.919,4.269,4.269,0,0,0-5.876-.561l-6.339,4.747-.061-.076a5.459,5.459,0,0,0-5.2-1.97l-.916.16.327-10.432.143.077a2.644,2.644,0,0,0,1.257.32,2.612,2.612,0,0,0,2.6-2.586V672.66a4.3,4.3,0,0,0-3.834-4.633,2.56,2.56,0,0,0-.341-.008h-1.937a.69.69,0,0,0-.461.17l-2.712,2.539-.069-.065-2.543-2.462a.622.622,0,0,0-.464-.181h-1.979a4.216,4.216,0,0,0-4.215,4.177v.074a1.235,1.235,0,0,0,.017.182,1.475,1.475,0,0,1,.019.21v9.516a2.573,2.573,0,0,0,2.531,2.6l.044-.009a2.516,2.516,0,0,0,1.232-.343l.145-.084.005.169.336,10.706-.124-.027a11.242,11.242,0,0,0-9.662,2.424l-.134.113-.32-1.838a.666.666,0,0,0-.776-.546l-6.953,1.217a.673.673,0,0,0-.545.777l3.581,15.355a.674.674,0,0,0,.775.545l6.041-1.314a.674.674,0,0,0,.545-.777l-.154-.881,1.7-1.382a3.3,3.3,0,0,1,2.4-.77Zm-8.382-33.9,0,7.078a1.256,1.256,0,0,1-1.192,1.3,1.217,1.217,0,0,1-1.212-1.226v-9.567a.2.2,0,0,1-.022-.065l-.008-.078a2.035,2.035,0,0,1-.015-.221,2.9,2.9,0,0,1,2.9-2.9h1.69l.03.027,3.058,2.88.211.046.264-.028.232-.137.039-.032.012,0,2.952-2.756h1.556c.063,0,.127,0,.189,0,.036,0,.071,0,.1,0a2.947,2.947,0,0,1,2.639,3.206.111.111,0,0,1,.014.061v9.55a1.253,1.253,0,0,1-1.18,1.322c-.024,0-.05,0-.074,0a1.257,1.257,0,0,1-1.254-1.182,1.213,1.213,0,0,1,0-.149l.011-2.682c0-.021,0-.044-.005-.068a.628.628,0,0,1-.006-.086v-4.291a.671.671,0,0,0-1.342,0v4.77l-.035.76h-8.116l-.06-1.151a.1.1,0,0,1-.034-.085v-4.293a.67.67,0,1,0-1.34,0Zm5.514,10.016a.674.674,0,0,0-.67.671v10.044l-.088.011a7.3,7.3,0,0,1-.86.052,7.107,7.107,0,0,1-1.912-.263l-.07-.02,0-.074-.438-13.566h8.035l0,.1-.394,12.989-2.925.539v-9.815A.673.673,0,0,0,912.974,685.062ZM898.9,710.734,894.28,711.8l-.017-.1-3.333-13.933.1-.018,5.531-.968.017.1L899,710.716Zm2.229-2.9-1.118.911-1.651-9.441.036-.038a9.983,9.983,0,0,1,9.893-2.6l.707.2a8.425,8.425,0,0,0,3.713.2l.318-.056a.526.526,0,0,0,.065-.011l5.955-1.042a4.137,4.137,0,0,1,4.552,2.578l.043.114-.119.021-9.59,1.677a.671.671,0,1,0,.231,1.321l10.421-1.822a.671.671,0,0,0,.545-.775,5.455,5.455,0,0,0-.337-1.154l-.03-.072,6.469-4.836a2.933,2.933,0,0,1,3.493-.133l.1.07-12.963,12.67a10.23,10.23,0,0,1-6,1.935H915.8l-11.318-.8A4.7,4.7,0,0,0,901.13,707.835Z" fill="#fff"/></g></svg>