<svg xmlns="http://www.w3.org/2000/svg" width="151.198" height="70" viewBox="0 0 151.198 70">
  <g id="Group_4543" data-name="Group 4543" transform="translate(-730.475 -400)">
    <g id="Group_4541" data-name="Group 4541" transform="translate(730.475 400)">
      <path id="Path_2023" data-name="Path 2023" d="M873.512,456.809v-.063q0-28.021,0-56.042c0-.8.1-.694-.712-.694q-8.506,0-17.013,0c-.148,0-.3.008-.442,0-.216-.013-.291.092-.31.3-.046.5-.108,1.005-.167,1.507q-.42,3.546-.841,7.091-.344,2.918-.682,5.837-.417,3.546-.838,7.091-.274,2.324-.547,4.647c-.209-.889-.337-1.781-.458-2.675q-.472-3.475-.939-6.951-.537-3.944-1.079-7.887-.582-4.289-1.149-8.581c-.038-.3-.151-.411-.44-.378a3.589,3.589,0,0,1-.379,0l-17.388.118c-.777,0-.777,0-.777.754v56.042a2.739,2.739,0,0,1,0,.379c-.05.35.121.417.433.412l11.9,0c.52,0,.487,0,.483-.48,0-.1,0-.211,0-.316q0-16.636,0-33.272v-1.375a6.294,6.294,0,0,1,.234,1.047c.227,1.542.449,3.085.675,4.627q.667,4.531,1.336,9.062c.442,3.022.874,6.045,1.316,9.066.528,3.605,1.07,7.208,1.586,10.814.1.709.132.576.7.577q3.732.005,7.463,0c.106,0,.211-.009.316,0,.213.022.309-.082.333-.28.015-.125.037-.25.054-.375.27-1.9.535-3.8.809-5.692.4-2.793.813-5.585,1.214-8.378q.659-4.6,1.31-9.2.677-4.722,1.362-9.442c.153-1.05.311-2.1.466-3.149h.051v36.429a1.41,1.41,0,0,0,.686.078q2.562.005,5.122,0,2.847,0,5.693,0C873.6,457.46,873.5,457.527,873.512,456.809Z" transform="translate(-760.134 -400)" fill="#fff"/>
      <path id="Path_2024" data-name="Path 2024" d="M913.1,437.053a59.277,59.277,0,0,0,0,7.595,9.186,9.186,0,0,0,.438,2.48,2.809,2.809,0,0,0,.306.689,2.1,2.1,0,0,0,3.615-.163,5.335,5.335,0,0,0,.526-1.614,20.416,20.416,0,0,0,.29-5.036,6.124,6.124,0,0,0-1.753-3.833,16.23,16.23,0,0,0-3.418-2.791c-1.564-.995-3.153-1.949-4.733-2.918-1.006-.618-1.978-1.285-2.935-1.976a13.787,13.787,0,0,1-5.091-7.05,23.7,23.7,0,0,1-1.245-9.455,14.667,14.667,0,0,1,1.71-5.967,12.4,12.4,0,0,1,7.62-5.941,22.251,22.251,0,0,1,6.358-.895,22.813,22.813,0,0,1,7.962,1.147,12.138,12.138,0,0,1,8.356,10.18,18.96,18.96,0,0,1-.01,5.98c-.079.515-.077.522-.576.522q-6.166,0-12.333,0c-.5,0-.515-.008-.473-.531a22.827,22.827,0,0,0-.024-4.482,7.682,7.682,0,0,0-.49-2.082,1.951,1.951,0,0,0-3.354-.769,3.419,3.419,0,0,0-.8,1.05,6.806,6.806,0,0,0,2.136,8.555c3.277,2.149,6.526,4.339,9.787,6.513a17.559,17.559,0,0,1,2.519,1.787,13.452,13.452,0,0,1,3.336,5.444,26.321,26.321,0,0,1,1.3,6.677,39.6,39.6,0,0,1-.014,6.126,13.351,13.351,0,0,1-.811,4.073,10.32,10.32,0,0,1-5.412,5.491,18.616,18.616,0,0,1-6.138,1.616,35.226,35.226,0,0,1-10.379-.547,11.044,11.044,0,0,1-8.514-7.141,19.393,19.393,0,0,1-1.323-5.829,29.548,29.548,0,0,1,.165-6.559c.039-.274.094-.405.41-.4q6.45.019,12.9.015C913.032,437.012,913.051,437.029,913.1,437.053Z" transform="translate(-781.042 -400.053)" fill="#fff"/>
      <path id="Path_2025" data-name="Path 2025" d="M812.959,457.084q0-5.059,0-10.118c0-.127,0-.253,0-.379.006-.181-.068-.275-.258-.268-.147,0-.295,0-.442,0h-9.106c-.148,0-.3-.008-.443,0-.23.014-.365-.057-.342-.316.009-.1,0-.211,0-.316V434.556c0-.127,0-.253,0-.379,0-.18.08-.272.268-.264.147.006.295,0,.442,0q3.762,0,7.525,0c.607,0,.549,0,.549-.547q0-4.837,0-9.676c0-.533-.006-.537-.56-.538q-3.731,0-7.461,0c-.148,0-.3-.011-.442,0-.29.027-.37-.12-.35-.379.012-.146,0-.295,0-.442q-.05-4.552-.1-9.1c-.008-.746-.021-.661.634-.661q4.3,0,8.6,0c.519,0,.531-.006.531-.446q.005-5.659,0-11.32c0-.428-.012-.428-.469-.438-.085,0-.169,0-.253,0q-11.446,0-22.891,0c-.785,0-.7-.1-.7.716q0,27.954,0,55.907c0,.148,0,.3,0,.443,0,.18.069.277.26.27.147,0,.295,0,.442,0h23.957C813.04,457.695,812.958,457.769,812.959,457.084Z" transform="translate(-747.642 -400.107)" fill="#fff"/>
      <path id="Path_2026" data-name="Path 2026" d="M773.884,430.395c0-.579.035-.553-.547-.55h-.19q-6.451,0-12.9,0c-.771,0-.7-.12-.7.714q0,17.678,0,35.356c0,.127.006.253,0,.379-.014.232.064.362.321.339.147-.013.3,0,.443,0H773.29c.606,0,.595.064.595-.567Q773.883,448.23,773.884,430.395Z" transform="translate(-739.197 -408.953)" fill="#fff"/>
      <path id="Path_2027" data-name="Path 2027" d="M744.8,465.819q0-17.575,0-35.151c0-.105,0-.211,0-.316-.01-.49-.011-.49-.483-.5-.063,0-.127,0-.19,0H731.169c-.716,0-.673-.069-.673.69v35.4c0,.127,0,.253,0,.379,0,.2.069.322.29.314.106,0,.211,0,.316,0H744C744.9,466.627,744.8,466.743,744.8,465.819Z" transform="translate(-730.481 -408.955)" fill="#ee7f2c"/>
      <path id="Path_2028" data-name="Path 2028" d="M744.8,408.645q0,3.888,0,7.776c0,.642.1.629-.594.629H731.054c-.105,0-.211-.006-.316,0-.195.012-.259-.088-.251-.267.006-.126,0-.253,0-.379V400.788a1.592,1.592,0,0,0,0-.252c-.057-.35.115-.414.427-.413q6.7.012,13.4.007c.475,0,.481.008.482.486Q744.8,404.63,744.8,408.645Z" transform="translate(-730.475 -400.037)" fill="#fff"/>
      <path id="Path_2029" data-name="Path 2029" d="M774.069,408.6v7.587c0,.127,0,.253,0,.379-.013.471-.014.482-.505.482q-6.638,0-13.275,0c-.532,0-.537-.008-.539-.575,0-1.011,0-2.023,0-3.035V400.979c0-.169.008-.337,0-.506-.012-.25.117-.335.347-.325.147.006.295,0,.442,0q6.385,0,12.769,0c.844,0,.76-.057.76.734Q774.072,404.738,774.069,408.6Z" transform="translate(-739.257 -400.044)" fill="#ee7f2c"/>
    </g>
    <g id="Group_4542" data-name="Group 4542" transform="translate(730.482 451.935)">
      <path id="Path_2030" data-name="Path 2030" d="M740.013,479.938c0-1.221.01-2.442-.008-3.663a6.269,6.269,0,0,1,.137-1.186.939.939,0,0,1,.79-.8.866.866,0,0,1,.84.552,2.108,2.108,0,0,1,.256,1.089c0,1.347.007,2.7.011,4.042-.063,2.825.087,5.646.218,8.466.022.48.031.486.5.489.928,0,1.855-.02,2.781.012a.58.58,0,0,0,.643-.45,9.294,9.294,0,0,1,1.081-1.995,3.91,3.91,0,0,1,.862-.918,1.3,1.3,0,0,1,1.871.156,4.7,4.7,0,0,1,.879,1.378c.2.44.413.876.6,1.323a.452.452,0,0,0,.484.309q2.276-.009,4.552,0a.651.651,0,0,0,.51-.194,2.6,2.6,0,0,1,.389-.322,1.621,1.621,0,0,1,2.479.371,2.761,2.761,0,0,0,.427.461c.344.269.617.2.821-.183a2.157,2.157,0,0,0,.229-.848c.031-.378.058-.758.06-1.136q.007-3.224,0-6.449c0-.167-.02-.335-.031-.5a2.991,2.991,0,0,0,.059-.94c0-1.053,0-2.1,0-3.157a3.128,3.128,0,0,1,.132-1.059.807.807,0,0,1,.743-.589.827.827,0,0,1,.818.486,2.32,2.32,0,0,1,.259,1.095c.008,1.137,0,2.273.008,3.409,0,.253.009.5.014.758q-.011,3.919-.02,7.838c0,.433,0,.867,0,1.459a1.73,1.73,0,0,1,1.755-.732c.482.04.97.009,1.452.049a1.226,1.226,0,0,0,1.344-.819q.162-.377.325-.754a3.186,3.186,0,0,1,.79-1.131,1.491,1.491,0,0,1,1.969-.143,3.978,3.978,0,0,1,1.066,1.152c.307.453.626.9.925,1.357a.605.605,0,0,0,.574.3c1.243-.012,2.486-.01,3.73,0a1.226,1.226,0,0,0,.9-.374,1.827,1.827,0,0,1,2.7.008,5.91,5.91,0,0,0,.463.428c.517.377.913.233,1.068-.4a4.523,4.523,0,0,0,.1-1.13q-.033-2.876-.062-5.752c-.006-.484-.017-.968-.025-1.452.029-1.28.056-2.561.09-3.842a5.179,5.179,0,0,1,.076-.94.869.869,0,0,1,.757-.743.857.857,0,0,1,.879.582,2.879,2.879,0,0,1,.246,1.288c0,.988,0,1.976,0,2.964,0,.23.017.461.027.692q-.017,3.379-.033,6.758c0,.758,0,1.515,0,2.337a7.748,7.748,0,0,1,3.633-.344,1.113,1.113,0,0,0,1.14-.623c.151-.277.28-.566.424-.846a3.113,3.113,0,0,1,.948-1.163,1.269,1.269,0,0,1,1.816.153,5.237,5.237,0,0,1,.871,1.158,2.933,2.933,0,0,0,2.708,1.54,13.674,13.674,0,0,1,2.331.09.6.6,0,0,0,.632-.325,2.617,2.617,0,0,1,.984-.869,1.3,1.3,0,0,1,1.582.148c.223.193.426.407.644.6.32.291.6.247.8-.137a1.5,1.5,0,0,0,.173-.667c.07-2.44.347-4.873.268-7.319,0-.126-.014-.252-.021-.378.009-1.429.022-2.859.025-4.288a2.178,2.178,0,0,1,.155-.925.808.808,0,0,1,.723-.525.786.786,0,0,1,.775.438,3.109,3.109,0,0,1,.332,1.586c0,1.009-.026,2.017-.039,3.025a1.9,1.9,0,0,0,.06.687c-.02.273-.055.546-.055.819q-.007,3.826,0,7.653a.718.718,0,0,0,.073.489,13.168,13.168,0,0,1,3.065-.021c.772.014,1-.075,1.341-.778.156-.322.29-.655.449-.976a4.2,4.2,0,0,1,.837-1.181,1.576,1.576,0,0,1,2.362-.011,3.686,3.686,0,0,1,.777,1.069c.205.414.4.838.562,1.27a.51.51,0,0,0,.555.388c1.454-.015,2.909,0,4.363-.011a1.759,1.759,0,0,0,1.161-.43,1.383,1.383,0,0,0-.04-2.194,3.306,3.306,0,0,0-1.083-.5,12.527,12.527,0,0,1-1.261-.4,2.2,2.2,0,0,1-.634-3.624,2.663,2.663,0,0,1,1.825-.757c.822-.028,1.644,0,2.466-.013.28,0,.381.11.359.375a2.531,2.531,0,0,0,0,.379c.017.256-.119.32-.349.319-.717,0-1.433.008-2.15.015a2.277,2.277,0,0,0-.81.1,1.28,1.28,0,0,0-.876,1.192,1.152,1.152,0,0,0,.847,1.13c.376.135.762.241,1.147.351a4.4,4.4,0,0,1,.935.377,2.407,2.407,0,0,1,.5,3.949,2.566,2.566,0,0,1-1.759.759c-1.686.022-3.373.013-5.059.018a1.214,1.214,0,0,1-1.008-.561,3.05,3.05,0,0,1-.452-1.035,3.6,3.6,0,0,0-.607-1.378.573.573,0,0,0-.967-.068,2.6,2.6,0,0,0-.542.773c-.294.583-.6,1.163-.862,1.758a1.573,1.573,0,0,1-1.594,1.012c-.8-.013-1.6-.02-2.4-.051a.72.72,0,0,0-.736.356c-.16.258-.369.6-.736.465s-.367-.531-.372-.869c-.024-1.264-.037-2.528-.059-3.793a1.342,1.342,0,0,0-.137-.787c-.115.845-.22,1.591-.32,2.339a4.418,4.418,0,0,1-.419,1.639,1.06,1.06,0,0,1-1.769.372,2.835,2.835,0,0,1-.6-.559,1.307,1.307,0,0,0-.417-.381c-.458-.254-.86-.182-1.045.3a1.335,1.335,0,0,1-1.2.855,12.639,12.639,0,0,1-4.087.118,2.317,2.317,0,0,1-1.916-1.457c-.146-.349-.273-.706-.411-1.059a3.411,3.411,0,0,0-.22-.521.565.565,0,0,0-.9-.209,2.126,2.126,0,0,0-.676.741,10.965,10.965,0,0,0-.8,1.645,1.119,1.119,0,0,1-.941.732,5.881,5.881,0,0,1-2.385-.065c-.416-.092-.723-.1-.953.328a1.475,1.475,0,0,1-.6.549.676.676,0,0,1-1.029-.241,2.593,2.593,0,0,1-.308-.689,3.093,3.093,0,0,0-.17-.474c-.158-.3-.324-.308-.5-.034-.045.07-.073.152-.114.225a.962.962,0,0,1-1.538.288,4.568,4.568,0,0,1-.494-.571c-.629-.763-1.191-.778-1.8-.012a1.515,1.515,0,0,1-1.059.592,19.016,19.016,0,0,1-3.841.234,5.172,5.172,0,0,1-.869-.153,1.59,1.59,0,0,1-1.294-1.232,4.334,4.334,0,0,0-.51-1.22,3.293,3.293,0,0,0-.4-.563.8.8,0,0,0-1.312-.041,3.108,3.108,0,0,0-.792,1.205,2.363,2.363,0,0,1-2.645,1.584c-.544-.053-1.086-.143-1.624-.24a.406.406,0,0,0-.528.3,3.2,3.2,0,0,1-.527.932c-.363.442-.671.406-.883-.115a4.26,4.26,0,0,1-.276-1.293,2.164,2.164,0,0,0-.162-.836c-.148.321-.26.614-.412.885a1.2,1.2,0,0,1-1.992.424c-.2-.148-.38-.332-.568-.5a3.828,3.828,0,0,0-.328-.3c-.516-.363-.894-.3-1.194.256a1.306,1.306,0,0,1-1.357.715c-1.472-.083-2.947-.07-4.42-.039-.874.018-.873.036-1.136-.813a8.469,8.469,0,0,0-.587-1.463,2.87,2.87,0,0,0-.505-.722.875.875,0,0,0-1.341-.057,3.264,3.264,0,0,0-.7.892,9.038,9.038,0,0,0-.766,1.66.562.562,0,0,1-.649.435c-.927-.026-1.855,0-2.782-.013a.6.6,0,0,0-.611.328c-.174.31-.4.649-.82.586-.447-.067-.543-.487-.659-.844a2.18,2.18,0,0,1-.123-.68,22.489,22.489,0,0,0-.075-2.829,8.447,8.447,0,0,1-.344,2.46q-.072.175-.148.349c-.592,1.345-1.471,1.073-2.251.421a6.123,6.123,0,0,1-.566-.677.736.736,0,0,0-1.306.059,2.922,2.922,0,0,0-.325.611.446.446,0,0,1-.484.307q-2.465-.011-4.932,0c-.289,0-.342-.122-.351-.379-.03-.888-.04-.888.845-.888,1.181,0,2.361-.008,3.541.006a1.2,1.2,0,0,0,.923-.3,2.606,2.606,0,0,1,.808-.489,1.455,1.455,0,0,1,1.874.4.889.889,0,0,0,.082.1c.511.513.852.451,1.118-.225a7.894,7.894,0,0,0,.412-2.925c0-1.665-.029-3.329-.048-4.994C740.048,480.188,740.025,480.064,740.013,479.938Z" transform="translate(-730.485 -474.193)" fill="#ed2329"/>
      <path id="Path_2031" data-name="Path 2031" d="M898.713,492.71a3.646,3.646,0,0,1-1.77.808,3.4,3.4,0,0,1-3.782-3.068,3.511,3.511,0,0,1,.953-2.9,3.086,3.086,0,0,1,3.466-.846,3.218,3.218,0,0,1,2.263,2.922c.09,1.215.03,2.441.016,3.662a2.152,2.152,0,0,1-.466,1.287,3.3,3.3,0,0,1-3.343,1.319,3.112,3.112,0,0,1-2.587-2.224,1.3,1.3,0,0,1-.036-.234,1.079,1.079,0,0,1,.512-.068.632.632,0,0,1,.722.414,2.169,2.169,0,0,0,3.641.379A1.751,1.751,0,0,0,898.713,492.71Zm-4.443-2.584c0,.032.005.18.026.326a2.345,2.345,0,0,0,1.83,1.941,2.149,2.149,0,0,0,2.388-1.248,2.583,2.583,0,0,0-.376-2.782,2.085,2.085,0,0,0-3.217-.018A2.443,2.443,0,0,0,894.269,490.127Z" transform="translate(-779.281 -477.881)" fill="#ed2329"/>
      <path id="Path_2032" data-name="Path 2032" d="M935.776,490.582a3.289,3.289,0,0,1-4.311,2.876,3.594,3.594,0,0,1-1.064-6.216,3.386,3.386,0,0,1,5.271,1.826c.294,1.114.21.9-.678,1.054-1.532.267-3.069.509-4.6.76.045.931,1.248,1.611,2,1.632a2.1,2.1,0,0,0,2.083-1.259.863.863,0,0,1,.877-.631C935.479,490.619,935.6,490.6,935.776,490.582Zm-1.255-1.455a2.243,2.243,0,0,0-2.686-1.355,2.079,2.079,0,0,0-1.6,2.055Z" transform="translate(-790.049 -477.904)" fill="#ed2329"/>
      <path id="Path_2033" data-name="Path 2033" d="M867.668,491.964v.6c0,.712-.039.762-.726.953a3.51,3.51,0,1,1-.983-6.933,3.388,3.388,0,0,1,3.47,3.225c.045,1.094,0,2.192.015,3.288,0,.307-.118.422-.41.4a1.75,1.75,0,0,0-.316,0c-.3.031-.409-.088-.4-.395.015-.969,0-1.94.007-2.909a2.519,2.519,0,0,0-.244-1.164,2.134,2.134,0,0,0-1.793-1.316,2.156,2.156,0,0,0-2.089,1.051,2.5,2.5,0,0,0,.769,3.443,2.027,2.027,0,0,0,2.215.01C867.318,492.135,867.409,491.968,867.668,491.964Z" transform="translate(-770.145 -477.91)" fill="#ed2329"/>
      <path id="Path_2034" data-name="Path 2034" d="M889.767,491.256c0,.612-.011,1.224,0,1.835.008.288-.07.447-.388.41-.083-.01-.169,0-.253,0-.473-.01-.48-.01-.482-.5q-.006-1.644,0-3.289a1.936,1.936,0,0,0-.452-1.345,1.715,1.715,0,0,0-1.82-.587,1.818,1.818,0,0,0-1.3,1.553c-.045.629-.027,1.263-.031,1.9,0,.611-.015,1.223,0,1.834.01.321-.087.478-.425.443a2.99,2.99,0,0,0-.379,0c-.2.006-.315-.067-.313-.29.009-1.349-.063-2.7.04-4.046a2.829,2.829,0,0,1,3.006-2.563,2.886,2.886,0,0,1,2.774,2.759c.034.631.006,1.265.006,1.9Z" transform="translate(-776.513 -477.914)" fill="#ed2329"/>
      <path id="Path_2035" data-name="Path 2035" d="M939.6,491.3c.3-.062.464.044.522.44a.959.959,0,0,0,.993.8.9.9,0,0,0,.893-.746.954.954,0,0,0-.588-1.13c-.324-.146-.675-.234-1.009-.362a1.791,1.791,0,0,1-1.255-1.842,1.955,1.955,0,0,1,3.515-1.079,1.585,1.585,0,0,1,.32.939c.006.208-.07.316-.292.3a2.753,2.753,0,0,0-.443,0c-.28.028-.4-.067-.449-.368a.625.625,0,0,0-.674-.538.775.775,0,0,0-.584,1.329,1.5,1.5,0,0,0,.549.3c.257.093.52.172.773.275a2.036,2.036,0,0,1,1.282,2.392,2.139,2.139,0,0,1-4.219-.35c-.015-.228.037-.374.3-.361C939.338,491.308,939.443,491.3,939.6,491.3Z" transform="translate(-793.019 -477.913)" fill="#ed2329"/>
      <path id="Path_2036" data-name="Path 2036" d="M871.7,486.841c1.14-.108,1.14-.108,1.527.859.462,1.152.921,2.306,1.387,3.456a1.616,1.616,0,0,0,.277.565c.208-.118.219-.349.295-.535.514-1.267,1.013-2.539,1.523-3.809.26-.647.125-.575.849-.583.167,0,.334,0,.48,0,.124.188.007.315-.044.442q-1.181,2.925-2.372,5.849c-.068.169-.083.407-.3.449a2.243,2.243,0,0,1-.877,0c-.119-.024-.144-.148-.181-.241C873.416,491.16,872.569,489.032,871.7,486.841Z" transform="translate(-772.848 -477.973)" fill="#ed2329"/>
      <path id="Path_2037" data-name="Path 2037" d="M920.61,486.836c1.142-.1,1.142-.1,1.529.867.469,1.172.934,2.345,1.409,3.515.069.17.091.372.283.5a1.574,1.574,0,0,0,.292-.592c.5-1.25.989-2.505,1.492-3.755.287-.713.182-.562.851-.58.167,0,.334,0,.492,0,.109.208-.018.348-.076.493q-1.167,2.9-2.346,5.792c-.069.168-.081.409-.3.453a2.2,2.2,0,0,1-.878,0c-.106-.022-.148-.142-.187-.24C922.326,491.158,921.481,489.028,920.61,486.836Z" transform="translate(-787.522 -477.972)" fill="#ed2329"/>
      <path id="Path_2038" data-name="Path 2038" d="M912.586,487.117c0,.99,0,1.98,0,2.97s.384,1.374,1.376,1.386c.611.008,1.222.013,1.833,0,.278-.008.386.1.36.366-.008.084,0,.169,0,.253-.008.477-.009.482-.5.487-.589.006-1.18.009-1.769,0a2.884,2.884,0,0,1-1.113-.2,1.937,1.937,0,0,1-1.238-1.555,5.616,5.616,0,0,1-.063-.817q-.008-2.907,0-5.814c0-.2-.1-.484.1-.586a1.41,1.41,0,0,1,.87-.024c.179.034.133.239.133.38,0,.948,0,1.9,0,2.843Z" transform="translate(-784.775 -476.991)" fill="#ed2329"/>
      <path id="Path_2039" data-name="Path 2039" d="M882.555,490.247c0,.946,0,1.893,0,2.839,0,.447-.011.449-.455.46-.147,0-.295,0-.442,0a.217.217,0,0,1-.225-.244c0-.105,0-.21,0-.315,0-1.872,0-3.744.005-5.615,0-.191-.123-.473.143-.553a1.5,1.5,0,0,1,.87.008c.16.05.105.255.106.4C882.556,488.228,882.555,489.238,882.555,490.247Z" transform="translate(-775.761 -477.961)" fill="#ed2329"/>
      <path id="Path_2040" data-name="Path 2040" d="M919.637,490.148c0,.969,0,1.939,0,2.908,0,.484-.01.484-.488.492-.1,0-.211,0-.316,0-.208,0-.312-.091-.307-.3,0-.169,0-.337,0-.505,0-1.812,0-3.625,0-5.436,0-.172-.1-.43.15-.489a1.425,1.425,0,0,1,.865.024c.155.063.09.264.091.4C919.639,488.21,919.637,489.179,919.637,490.148Z" transform="translate(-786.892 -477.962)" fill="#ed2329"/>
      <path id="Path_2041" data-name="Path 2041" d="M882.564,484.475c0,.084,0,.169,0,.253,0,.587,0,.587-.579.585-.54,0-.541,0-.546-.557,0-.168,0-.337,0-.505,0-.766,0-.753.771-.722.281.011.372.117.356.379C882.555,484.1,882.564,484.285,882.564,484.475Z" transform="translate(-775.771 -476.99)" fill="#ed2a2f"/>
      <path id="Path_2042" data-name="Path 2042" d="M918.53,484.418c0-.105,0-.21,0-.314.007-.56.007-.56.542-.563.566,0,.566,0,.571.591,0,.21,0,.419,0,.629,0,.587.039.559-.533.557C918.4,485.316,918.544,485.345,918.53,484.418Z" transform="translate(-786.897 -476.997)" fill="#ed2a2f"/>
    </g>
  </g>
</svg>
