<svg xmlns="http://www.w3.org/2000/svg" width="57" height="57" viewBox="0 0 57 57">
  <g id="Layer_28" data-name="Layer 28" transform="translate(-1 -1)">
    <path id="Path_1" data-name="Path 1" d="M29.5,58A28.5,28.5,0,1,1,58,29.5,28.5,28.5,0,0,1,29.5,58Zm0-53.2A24.7,24.7,0,1,0,54.2,29.5,24.7,24.7,0,0,0,29.5,4.8Z" fill="#22b981"/>
    <path id="Path_2" data-name="Path 2" d="M18.731,32.845a1.9,1.9,0,0,1-1.387-.608l-8.873-9.5a1.9,1.9,0,0,1,2.774-2.584l7.486,8,16.34-17.5a1.9,1.9,0,1,1,2.774,2.584l-17.727,19A1.9,1.9,0,0,1,18.731,32.845Z" transform="translate(6.342 8.055)" fill="#22b981"/>
  </g>
</svg>
